<svg width="18" height="20" viewBox="0 0 18 20" fill="none" xmlns="http://www.w3.org/2000/svg">
<path fill-rule="evenodd" clip-rule="evenodd" d="M5 6.31579C4.72386 6.31579 4.5 6.08015 4.5 5.78947V4.73684C4.5 2.12076 6.51472 -1.44581e-07 9 0C11.4853 1.44581e-07 13.5 2.12076 13.5 4.73684V5.78947C13.5 6.08015 13.2761 6.31579 13 6.31579C12.7239 6.31579 12.5 6.08015 12.5 5.78947V4.73684C12.5 2.70211 10.933 1.05263 9 1.05263C7.067 1.05263 5.5 2.70211 5.5 4.73684V5.78947C5.5 6.08015 5.27614 6.31579 5 6.31579Z" fill="#4B566B"/>
<path fill-rule="evenodd" clip-rule="evenodd" d="M12 9.47368C12.2761 9.47368 12.5 9.70932 12.5 10V12.1053C12.5 12.3959 12.2761 12.6316 12 12.6316C11.7239 12.6316 11.5 12.3959 11.5 12.1053V10C11.5 9.70932 11.7239 9.47368 12 9.47368Z" fill="#4B566B"/>
<path fill-rule="evenodd" clip-rule="evenodd" d="M6 9.47368C6.27614 9.47368 6.5 9.70932 6.5 10V12.1053C6.5 12.3959 6.27614 12.6316 6 12.6316C5.72386 12.6316 5.5 12.3959 5.5 12.1053V10C5.5 9.70932 5.72386 9.47368 6 9.47368Z" fill="#4B566B"/>
<path fill-rule="evenodd" clip-rule="evenodd" d="M4.96342 5.26316H13.0366C13.9483 5.26314 14.6832 5.26313 15.2612 5.34493C15.8612 5.42985 16.3665 5.61153 16.7678 6.03393C17.169 6.45633 17.3416 6.98817 17.4223 7.61982C17.5 8.22822 17.5 9.00177 17.5 9.96147V11.0934C17.5 13.0437 17.5 14.5613 17.3491 15.7429C17.1952 16.9478 16.8762 17.8819 16.182 18.6126C15.4878 19.3433 14.6004 19.6792 13.4557 19.8412C12.3332 20 10.8915 20 9.03868 20H8.96133C7.10847 20 5.66681 20 4.54429 19.8412C3.39959 19.6792 2.51219 19.3433 1.81802 18.6126C1.12385 17.8819 0.804807 16.9478 0.650906 15.7429C0.499988 14.5613 0.499993 13.0437 0.500001 11.0934L0.5 9.96149C0.499987 9.00178 0.499976 8.22822 0.577683 7.61982C0.65836 6.98817 0.830956 6.45633 1.23223 6.03393C1.63351 5.61153 2.13876 5.42985 2.73883 5.34493C3.31681 5.26313 4.05169 5.26314 4.96342 5.26316ZM2.87208 6.38817C2.3829 6.4574 2.12385 6.58403 1.93934 6.77825C1.75483 6.97247 1.63453 7.24515 1.56877 7.76008C1.50106 8.29015 1.5 8.99269 1.5 10V11.0526C1.5 13.0524 1.50106 14.4992 1.64199 15.6026C1.78098 16.6908 2.04773 17.3658 2.52513 17.8683C3.00253 18.3708 3.64373 18.6516 4.67754 18.7979C5.72573 18.9463 7.10025 18.9474 9 18.9474C10.8998 18.9474 12.2743 18.9463 13.3225 18.7979C14.3563 18.6516 14.9975 18.3708 15.4749 17.8683C15.9523 17.3658 16.219 16.6908 16.358 15.6026C16.4989 14.4992 16.5 13.0524 16.5 11.0526V10C16.5 8.99269 16.4989 8.29015 16.4312 7.76008C16.3655 7.24515 16.2452 6.97247 16.0607 6.77825C15.8762 6.58403 15.6171 6.4574 15.1279 6.38817C14.6244 6.31691 13.9569 6.31579 13 6.31579H5C4.04306 6.31579 3.37565 6.31691 2.87208 6.38817Z" fill="#4B566B"/>
</svg>
