<svg width="5" height="10" viewBox="0 0 5 10" fill="none" xmlns="http://www.w3.org/2000/svg">
<path d="M4.99831 5.00785C4.99864 5.17445 4.94054 5.33591 4.83411 5.46419L1.26453 9.74241C1.14335 9.88803 0.969215 9.9796 0.780437 9.99698C0.591658 10.0144 0.403697 9.95614 0.257904 9.83511C0.11211 9.71408 0.0204261 9.54016 0.00302104 9.35161C-0.014384 9.16307 0.0439154 8.97534 0.165095 8.82973L3.36344 5.00784L0.279323 1.18596C0.220021 1.11303 0.175735 1.02911 0.149012 0.939021C0.122289 0.848937 0.113655 0.754466 0.123606 0.661037C0.133558 0.56761 0.161898 0.477066 0.206999 0.394613C0.2521 0.31216 0.313072 0.239422 0.38641 0.18058C0.459816 0.11528 0.545933 0.0658246 0.639366 0.0353118C0.732799 0.00479899 0.831534 -0.00611294 0.929386 0.00325883C1.02724 0.0126306 1.1221 0.0420829 1.20802 0.0897733C1.29395 0.137464 1.36908 0.202364 1.42873 0.280406L4.87695 4.55863C4.96655 4.6906 5.00929 4.84877 4.99831 5.00785Z" fill="#42D697"/>
</svg>
