<svg width="20" height="20" viewBox="0 0 20 20" fill="none" xmlns="http://www.w3.org/2000/svg">
<path fill-rule="evenodd" clip-rule="evenodd" d="M8.125 1.25C4.32804 1.25 1.25 4.32804 1.25 8.125C1.25 11.922 4.32804 15 8.125 15C11.922 15 15 11.922 15 8.125C15 4.32804 11.922 1.25 8.125 1.25ZM0 8.125C0 3.63769 3.63769 0 8.125 0C12.6123 0 16.25 3.63769 16.25 8.125C16.25 12.6123 12.6123 16.25 8.125 16.25C3.63769 16.25 0 12.6123 0 8.125Z" fill="#4B566B"/>
<path fill-rule="evenodd" clip-rule="evenodd" d="M13.3081 13.3081C13.5521 13.064 13.9479 13.064 14.1919 13.3081L19.8169 18.9331C20.061 19.1771 20.061 19.5729 19.8169 19.8169C19.5729 20.061 19.1771 20.061 18.9331 19.8169L13.3081 14.1919C13.064 13.9479 13.064 13.5521 13.3081 13.3081Z" fill="#4B566B"/>
</svg>
