<svg width="12" height="14" viewBox="0 0 12 14" fill="none" xmlns="http://www.w3.org/2000/svg">
<path fill-rule="evenodd" clip-rule="evenodd" d="M6 0.823529C4.68043 0.823529 3.6 1.944 3.6 3.33987V3.66013L8.4 3.66013V3.33987C8.4 1.944 7.31957 0.823529 6 0.823529ZM9.2 3.6606V3.33987C9.2 1.50145 7.77323 -2.45431e-07 6 0C4.22677 -1.47259e-07 2.8 1.50145 2.8 3.33987V3.6606C2.33088 3.66246 1.9355 3.67171 1.60969 3.71752C1.18293 3.77752 0.816459 3.90704 0.52499 4.21185C0.234383 4.51575 0.111691 4.89634 0.0547148 5.33951C-2.08318e-05 5.76526 -1.12969e-05 6.30545 3.37905e-07 6.97067L6.24007e-07 7.76322C-5.57488e-06 9.11711 -1.04427e-05 10.1746 0.105971 10.999C0.214204 11.8408 0.439408 12.5012 0.935041 13.0195C1.43153 13.5387 2.06551 13.7754 2.87351 13.889C3.66302 14 4.67532 14 5.96887 14H6.03113C7.32468 14 8.33698 14 9.12649 13.889C9.93449 13.7754 10.5685 13.5387 11.065 13.0195C11.5606 12.5012 11.7858 11.8408 11.894 10.999C12 10.1746 12 9.11712 12 7.76323V6.97069C12 6.30545 12 5.76526 11.9453 5.33951C11.8883 4.89634 11.7656 4.51575 11.475 4.21185C11.1835 3.90704 10.8171 3.77752 10.3903 3.71752C10.0645 3.67171 9.66912 3.66246 9.2 3.6606ZM10.2821 4.53347C9.93417 4.48456 9.47145 4.48366 8.8 4.48366L3.2 4.48366C2.52855 4.48366 2.06583 4.48456 1.71795 4.53347C1.38223 4.58068 1.21369 4.66556 1.09511 4.78957C0.975669 4.91447 0.893336 5.09337 0.847799 5.44756C0.800824 5.81294 0.800001 6.29838 0.800001 7V7.73203C0.800001 9.12381 0.800824 10.1269 0.899056 10.8909C0.995848 11.6438 1.18069 12.1024 1.50516 12.4418C1.82877 12.7802 2.26481 12.9723 2.98177 13.0731C3.71089 13.1756 4.66859 13.1765 6 13.1765C7.33142 13.1765 8.28911 13.1756 9.01823 13.0731C9.73519 12.9723 10.1712 12.7802 10.4948 12.4418C10.8193 12.1024 11.0042 11.6438 11.1009 10.8909C11.1992 10.1269 11.2 9.12381 11.2 7.73203V7C11.2 6.29838 11.1992 5.81294 11.1522 5.44756C11.1067 5.09337 11.0243 4.91447 10.9049 4.78957C10.7863 4.66556 10.6178 4.58067 10.2821 4.53347ZM3.9 6.58823C4.12091 6.58823 4.3 6.77259 4.3 7V8.46405C4.3 8.69146 4.12091 8.87582 3.9 8.87582C3.67909 8.87582 3.5 8.69146 3.5 8.46405V7C3.5 6.77259 3.67909 6.58823 3.9 6.58823ZM8.1 6.58823C8.32091 6.58823 8.5 6.77259 8.5 7V8.46405C8.5 8.69146 8.32091 8.87582 8.1 8.87582C7.87909 8.87582 7.7 8.69146 7.7 8.46405V7C7.7 6.77259 7.87909 6.58823 8.1 6.58823Z" fill="white"/>
</svg>
