<svg width="16" height="14" viewBox="0 0 16 14" fill="none" xmlns="http://www.w3.org/2000/svg">
<path d="M7.54549 12.8686L7.88783 12.5042L7.88783 12.5042L7.54549 12.8686ZM2.2498 7.8939L1.90746 8.25832L2.2498 7.8939ZM1.83202 2.57571L1.43698 2.26921H1.43698L1.83202 2.57571ZM2.06765 2.27201L2.4627 2.57851L2.06765 2.27201ZM13.9323 2.27201L13.5373 2.5785V2.57851L13.9323 2.27201ZM14.168 2.57571L14.563 2.26921V2.26921L14.168 2.57571ZM13.7502 7.8939L13.4079 7.52948V7.52948L13.7502 7.8939ZM8.45451 12.8686L8.79685 13.2331L8.45451 12.8686ZM8.37069 2.87093L7.91945 2.65556V2.65556L8.37069 2.87093ZM7.62931 2.87093L8.08055 2.65556V2.65556L7.62931 2.87093ZM7.92666 13.1468L7.83037 13.6374L7.83038 13.6374L7.92666 13.1468ZM8.07334 13.1468L8.16963 13.6374L8.16963 13.6374L8.07334 13.1468ZM7.88783 12.5042L2.59213 7.52948L1.90746 8.25832L7.20316 13.2331L7.88783 12.5042ZM2.22706 2.88221L2.4627 2.57851L1.67261 1.96551L1.43698 2.26921L2.22706 2.88221ZM13.5373 2.57851L13.7729 2.88221L14.563 2.26921L14.3274 1.96551L13.5373 2.57851ZM13.4079 7.52948L8.11217 12.5042L8.79685 13.2331L14.0925 8.25833L13.4079 7.52948ZM13.7729 2.88221C14.868 4.29362 14.7099 6.30637 13.4079 7.52948L14.0925 8.25833C15.7705 6.68206 15.9743 4.08815 14.563 2.26921L13.7729 2.88221ZM8.82193 3.08629C9.71502 1.21504 12.2663 0.940306 13.5373 2.5785L14.3274 1.96551C12.6001 -0.260718 9.13311 0.112638 7.91945 2.65556L8.82193 3.08629ZM7.17807 3.08629C7.508 3.77757 8.492 3.77757 8.82193 3.08629L7.91945 2.65556C7.95178 2.58781 8.04822 2.58781 8.08055 2.65556L7.17807 3.08629ZM2.4627 2.57851C3.73371 0.940308 6.28498 1.21504 7.17807 3.08629L8.08055 2.65556C6.86689 0.112637 3.39985 -0.260714 1.67261 1.96551L2.4627 2.57851ZM2.59213 7.52948C1.29012 6.30637 1.132 4.29362 2.22706 2.88221L1.43698 2.26921C0.0257326 4.08815 0.229498 6.68206 1.90746 8.25832L2.59213 7.52948ZM7.20316 13.2331C7.2871 13.3119 7.37606 13.3963 7.45906 13.4602C7.54875 13.5293 7.67003 13.606 7.83037 13.6374L8.02295 12.6562C8.07575 12.6665 8.09766 12.6898 8.06926 12.6679C8.0548 12.6568 8.03402 12.6393 8.00231 12.6106C7.97063 12.582 7.93444 12.548 7.88783 12.5042L7.20316 13.2331ZM8.11217 12.5042C8.06557 12.548 8.02937 12.582 7.99769 12.6106C7.96598 12.6393 7.9452 12.6568 7.93074 12.6679C7.90234 12.6898 7.92425 12.6665 7.97705 12.6562L8.16963 13.6374C8.32997 13.606 8.45125 13.5293 8.54094 13.4602C8.62394 13.3963 8.7129 13.3119 8.79685 13.2331L8.11217 12.5042ZM7.83038 13.6374C7.94239 13.6594 8.05761 13.6594 8.16963 13.6374L7.97705 12.6562C7.99221 12.6532 8.00779 12.6532 8.02295 12.6562L7.83038 13.6374Z" fill="#7D879C"/>
</svg>
