<svg width="5" height="10" viewBox="0 0 5 10" fill="none" xmlns="http://www.w3.org/2000/svg">
<path d="M4.99831 5.00834C4.99864 5.17494 4.94054 5.3364 4.83411 5.46469L1.26453 9.74291C1.14335 9.88852 0.969215 9.9801 0.780437 9.99748C0.591658 10.0149 0.403697 9.95663 0.257904 9.8356C0.11211 9.71457 0.0204261 9.54066 0.00302104 9.35211C-0.014384 9.16356 0.0439154 8.97584 0.165095 8.83022L3.36344 5.00834L0.279323 1.18646C0.220021 1.11352 0.175735 1.0296 0.149012 0.939517C0.122289 0.849433 0.113655 0.754962 0.123606 0.661533C0.133558 0.568106 0.161898 0.477562 0.206999 0.395109C0.2521 0.312655 0.313072 0.239918 0.38641 0.181076C0.459816 0.115776 0.545933 0.0663205 0.639366 0.0358077C0.732799 0.0052949 0.831534 -0.00561703 0.929386 0.00375474C1.02724 0.0131265 1.1221 0.0425788 1.20802 0.0902692C1.29395 0.13796 1.36908 0.20286 1.42873 0.280902L4.87695 4.55913C4.96655 4.6911 5.00929 4.84926 4.99831 5.00834Z" fill="#4B566B"/>
</svg>
