<svg width="12" height="12" viewBox="0 0 12 12" fill="none" xmlns="http://www.w3.org/2000/svg">
<path d="M4.67028 2.06565C5.17467 0.760723 5.42686 0.108261 5.83659 0.017833C5.94432 -0.00594435 6.05567 -0.00594435 6.16341 0.017833C6.57314 0.108261 6.82533 0.760723 7.32972 2.06565C7.61655 2.80773 7.75997 3.17878 8.02833 3.43114C8.1036 3.50193 8.1853 3.56497 8.2723 3.61939C8.58247 3.81339 8.96967 3.84938 9.74406 3.92135C11.055 4.04319 11.7104 4.10411 11.9106 4.49195C11.952 4.57227 11.9802 4.65924 11.994 4.74924C12.0603 5.18377 11.5785 5.63872 10.6148 6.54861L10.3471 6.80129C9.89658 7.22668 9.6713 7.43937 9.541 7.70481C9.46284 7.86404 9.41043 8.03552 9.38587 8.2124C9.34493 8.50725 9.4109 8.81581 9.54284 9.43293L9.58998 9.65341C9.82659 10.7601 9.94489 11.3135 9.79721 11.5855C9.66456 11.8298 9.42021 11.9862 9.15029 11.9996C8.8498 12.0144 8.4264 11.6564 7.57959 10.9403C7.02168 10.4685 6.74272 10.2326 6.43305 10.1405C6.15005 10.0563 5.84995 10.0563 5.56695 10.1405C5.25728 10.2326 4.97832 10.4685 4.42041 10.9403C3.5736 11.6564 3.1502 12.0144 2.84971 11.9996C2.57979 11.9862 2.33544 11.8298 2.20279 11.5855C2.05511 11.3135 2.17341 10.7601 2.41002 9.65342L2.45716 9.43293C2.5891 8.81581 2.65507 8.50725 2.61413 8.2124C2.58957 8.03552 2.53716 7.86404 2.459 7.70481C2.3287 7.43937 2.10342 7.22668 1.65287 6.80129L1.38525 6.54861C0.421537 5.63872 -0.0603196 5.18377 0.00603909 4.74924C0.0197826 4.65924 0.0479677 4.57227 0.0894225 4.49195C0.289582 4.10411 0.945036 4.04319 2.25594 3.92135C3.03033 3.84938 3.41753 3.81339 3.7277 3.61939C3.8147 3.56497 3.8964 3.50193 3.97167 3.43114C4.24003 3.17878 4.38345 2.80773 4.67028 2.06565Z" fill="#FEA569"/>
</svg>
