<svg width="13" height="10" viewBox="0 0 13 10" fill="none" xmlns="http://www.w3.org/2000/svg">
<path fill-rule="evenodd" clip-rule="evenodd" d="M6.49995 1C3.47539 1 1.76458 3.35543 1.12855 4.46843L0.694436 4.22036L1.12855 4.46843C1.09404 4.52883 1.06839 4.57378 1.04724 4.61328C1.0264 4.65219 1.01478 4.67692 1.00784 4.69408C1.00157 4.70956 1.00042 4.71575 1.0003 4.7164L1.0003 4.71642L1.00006 4.71844C0.999986 4.71949 0.999861 4.72209 1.00006 4.72677C1.00008 4.72736 1.00009 4.72792 1.00009 4.72848C1.0001 4.73291 1.00012 4.7374 1.01153 4.75975C1.03357 4.80296 1.07063 4.85844 1.15627 4.98269C1.53117 5.5266 2.22307 6.42154 3.15537 7.17603C4.08934 7.93188 5.22517 8.51564 6.49995 8.51564C7.77474 8.51564 8.91057 7.93188 9.84453 7.17603C10.7768 6.42154 11.4687 5.5266 11.8436 4.98269C11.9293 4.85844 11.9663 4.80297 11.9884 4.75976C11.9998 4.7374 11.9998 4.73291 11.9998 4.72848C11.9998 4.72792 11.9998 4.72737 11.9998 4.72677C12 4.72349 12 4.72124 11.9999 4.71982C11.9999 4.71921 11.9999 4.71876 11.9998 4.71844L11.9996 4.71642L11.9996 4.7164C11.9995 4.71574 11.9983 4.70955 11.9921 4.69408C11.9851 4.67692 11.9735 4.65219 11.9527 4.61328C11.9315 4.57378 11.9059 4.52883 11.8714 4.46843C11.2353 3.35542 9.52452 1 6.49995 1ZM0.260319 3.97228C0.932717 2.79563 2.90149 0 6.49995 0C10.0984 0 12.0672 2.79563 12.7396 3.97228C12.7471 3.98538 12.7547 3.99863 12.7624 4.01205C12.8768 4.21045 13.0126 4.44618 12.999 4.76892C12.9853 5.0919 12.8274 5.31918 12.6944 5.51062C12.6851 5.52398 12.676 5.53717 12.667 5.5502C12.2632 6.13604 11.5087 7.11571 10.4736 7.95337C9.44021 8.78969 8.08771 9.51564 6.49995 9.51564C4.9122 9.51564 3.55969 8.78969 2.52629 7.95337C1.49122 7.11571 0.736709 6.13604 0.332908 5.5502C0.323925 5.53716 0.314763 5.52398 0.30548 5.51062C0.172476 5.31918 0.0145714 5.0919 0.000947061 4.76892C-0.0126672 4.44618 0.123154 4.21045 0.237465 4.01205C0.245199 3.99863 0.252835 3.98538 0.260319 3.97228ZM6.49995 3.43304C5.7683 3.43304 5.17517 4.02617 5.17517 4.75782C5.17517 5.48948 5.7683 6.0826 6.49995 6.0826C7.23161 6.0826 7.82473 5.48948 7.82473 4.75782C7.82473 4.02617 7.23161 3.43304 6.49995 3.43304ZM4.17517 4.75782C4.17517 3.47388 5.21601 2.43304 6.49995 2.43304C7.78389 2.43304 8.82473 3.47388 8.82473 4.75782C8.82473 6.04176 7.78389 7.0826 6.49995 7.0826C5.21601 7.0826 4.17517 6.04176 4.17517 4.75782Z" fill="#4B566B"/>
</svg>
