<svg width="2" height="3" viewBox="0 0 2 3" fill="none" xmlns="http://www.w3.org/2000/svg">
<path d="M1.49949 1.50235C1.49959 1.55233 1.48216 1.60077 1.45023 1.63926L0.379358 2.92272C0.343004 2.96641 0.290765 2.99388 0.234131 2.99909C0.177498 3.00431 0.121109 2.98684 0.0773712 2.95053C0.033633 2.91422 0.00612783 2.86205 0.000906311 2.80548C-0.00431521 2.74892 0.0131746 2.6926 0.0495284 2.64892L1.00903 1.50235L0.0837969 0.355788C0.0660062 0.333908 0.0527206 0.308731 0.0447036 0.281706C0.0366867 0.25468 0.0340965 0.226339 0.0370819 0.198311C0.0400674 0.170282 0.0485695 0.143119 0.0620997 0.118383C0.07563 0.093647 0.0939216 0.0718258 0.115923 0.054173C0.137945 0.0345831 0.16378 0.0197466 0.19181 0.0105927C0.21984 0.00143888 0.24946 -0.0018346 0.278816 0.000976837C0.308171 0.00378827 0.336629 0.0126241 0.362407 0.0269311C0.388184 0.0412384 0.410726 0.0607083 0.428619 0.084121L1.46308 1.36759C1.48997 1.40718 1.50279 1.45463 1.49949 1.50235Z" fill="#1F1E2E"/>
</svg>
