<svg width="30" height="48" viewBox="0 0 30 48" fill="none" xmlns="http://www.w3.org/2000/svg">
<path d="M24.3294 0H5.06914C3.725 0.00193185 2.43649 0.536871 1.48621 1.4875C0.535921 2.43812 0.00144809 3.72683 5.60521e-09 5.07098V41.201C-5.79183e-05 42.4342 0.448821 43.6254 1.2628 44.5518C2.07678 45.4783 3.20019 46.0768 4.42319 46.2355V47.5128C4.42367 47.6419 4.47515 47.7655 4.56641 47.8568C4.65768 47.948 4.78132 47.9995 4.91039 48H10.7313C10.8607 48 10.9848 47.9487 11.0765 47.8574C11.1682 47.7661 11.2199 47.6422 11.2204 47.5128V46.2756H18.18V47.5128C18.1804 47.6419 18.2319 47.7655 18.3232 47.8568C18.4145 47.948 18.5381 47.9995 18.6672 48H24.4881C24.6173 48 24.7413 47.9487 24.8326 47.8573C24.924 47.7659 24.9753 47.642 24.9753 47.5128V46.2355C26.1974 46.0773 27.3203 45.4801 28.1344 44.5551C28.9486 43.6301 29.3986 42.4406 29.4003 41.2083V5.07828C29.4003 3.7327 28.8663 2.44212 27.9155 1.48997C26.9647 0.537818 25.6749 0.001934 24.3294 0ZM28.2854 4.01445C27.7565 3.27652 27.0232 2.70946 26.176 2.38312C25.845 1.83769 25.4007 1.36973 24.8731 1.01091C25.6769 1.11749 26.4311 1.4601 27.0401 1.9954C27.6491 2.53069 28.0857 3.23462 28.2945 4.0181L28.2854 4.01445ZM23.7473 45.2903H5.65124C4.99733 45.0463 4.41902 44.6348 3.9743 44.0969C4.27473 44.1567 4.58034 44.1866 4.88667 44.1863H24.5191C24.8255 44.1868 25.1311 44.1568 25.4315 44.0969C24.9859 44.6379 24.4047 45.051 23.7473 45.2939V45.2903ZM24.5191 43.6991H4.8812C4.43131 43.6995 3.9844 43.6262 3.55826 43.4819C3.23965 42.9021 3.07269 42.2512 3.07288 41.5897V4.67683C3.07246 4.01523 3.23943 3.36428 3.55826 2.78457C3.9844 2.64032 4.43131 2.56696 4.8812 2.56742H24.5191C24.969 2.56726 25.4159 2.64061 25.8421 2.78457C26.1604 3.36442 26.3267 4.01538 26.3256 4.67683V41.5933C26.3265 42.2547 26.1601 42.9056 25.8421 43.4856C25.4157 43.6287 24.9689 43.702 24.5191 43.7027V43.6991ZM0.979889 5.31184C1.32352 4.36022 2.00118 3.56584 2.88675 3.07653C2.68995 3.58584 2.58911 4.12717 2.58932 4.67318V41.5933C2.58891 42.1387 2.68976 42.6795 2.88675 43.1881C2.00087 42.7001 1.32302 41.9061 0.979889 40.9547V5.31184ZM5.65124 0.981715H23.7473C24.4017 1.22474 24.9802 1.63644 25.4242 2.1751C25.1238 2.11517 24.8182 2.08522 24.5118 2.08569H4.8812C4.57487 2.08534 4.26926 2.11529 3.96883 2.1751C4.41507 1.63643 4.99534 1.22482 5.65124 0.981715ZM26.5154 3.08018C27.4015 3.56941 28.0797 4.36374 28.4241 5.31549V40.9547C28.0802 41.9062 27.4018 42.7001 26.5154 43.1881C26.713 42.6796 26.8145 42.1389 26.8147 41.5933V4.67683C26.8143 4.13071 26.7128 3.58937 26.5154 3.08018ZM4.52537 1.01456C3.99837 1.37344 3.55466 1.84142 3.22433 2.38677C2.37365 2.71138 1.63701 3.27862 1.1058 4.0181C1.3158 3.2359 1.75256 2.53332 2.36107 1.99885C2.96958 1.46438 3.72262 1.1219 4.52537 1.01456ZM1.11309 42.2539C1.64282 42.9918 2.37664 43.5588 3.22433 43.8852C3.55466 44.4305 3.99837 44.8985 4.52537 45.2574C3.72239 45.1499 2.96918 44.8072 2.36065 44.2724C1.75211 43.7376 1.31549 43.0346 1.1058 42.252L1.11309 42.2539ZM10.2368 47.0201H5.39944V46.272H10.2441L10.2368 47.0201ZM23.9936 47.0201H19.1562V46.272H24.0009L23.9936 47.0201ZM24.8658 45.2574C25.3934 44.8986 25.8377 44.4306 26.1687 43.8852C27.0218 43.5605 27.7609 42.9927 28.2945 42.252C28.0851 43.0348 27.6482 43.738 27.0393 44.2726C26.4303 44.8072 25.6765 45.1493 24.8731 45.2556L24.8658 45.2574Z" fill="#4B566B"/>
<path d="M14.7002 21.99C12.7898 21.9897 10.9223 22.556 9.33383 23.6172C7.74538 24.6785 6.50739 26.187 5.7765 27.952C5.0456 29.7171 4.85464 31.6592 5.22778 33.5328C5.60091 35.4063 6.52138 37.1271 7.87272 38.4774C9.22405 39.8277 10.9455 40.7469 12.8194 41.1186C14.6932 41.4903 16.6352 41.2979 18.3997 40.5657C20.1641 39.8334 21.6717 38.5943 22.7318 37.0051C23.7919 35.4158 24.3567 33.5478 24.3549 31.6375C24.3486 29.0795 23.3292 26.6282 21.5197 24.8201C19.7103 23.012 17.2582 21.9944 14.7002 21.99ZM14.7002 40.8141C12.8869 40.8145 11.1142 40.2772 9.60622 39.2702C8.09824 38.2632 6.92269 36.8317 6.22819 35.1567C5.53369 33.4817 5.35142 31.6383 5.70443 29.8597C6.05743 28.0811 6.92986 26.4471 8.21142 25.1643C9.49297 23.8815 11.1261 23.0074 12.9044 22.6526C14.6826 22.2979 16.5261 22.4783 18.2018 23.1711C19.8775 23.864 21.3102 25.0381 22.3187 26.5451C23.3272 28.052 23.8663 29.8242 23.8677 31.6375C23.8672 34.0696 22.9015 36.402 21.1826 38.1226C19.4637 39.8432 17.1322 40.8112 14.7002 40.8141Z" fill="#4B566B"/>
<path d="M14.7002 22.8185C12.9542 22.8185 11.2474 23.3363 9.79578 24.3065C8.34415 25.2767 7.21285 26.6556 6.54503 28.2688C5.8772 29.882 5.70284 31.6571 6.044 33.3694C6.38516 35.0817 7.2265 36.6544 8.46161 37.8885C9.69673 39.1226 11.2701 39.9627 12.9827 40.3024C14.6953 40.6421 16.4702 40.4663 18.0829 39.7971C19.6956 39.128 21.0736 37.9955 22.0425 36.5431C23.0115 35.0907 23.5279 33.3835 23.5265 31.6375C23.5217 29.2988 22.59 27.0573 20.9355 25.4043C19.2811 23.7512 17.0389 22.8214 14.7002 22.8185ZM14.7002 39.9839C13.0511 39.9842 11.4389 39.4957 10.0675 38.5799C8.69604 37.6641 7.6269 36.3623 6.99524 34.839C6.36358 33.3157 6.19776 31.6393 6.51873 30.0217C6.8397 28.4042 7.63306 26.9181 8.7985 25.7514C9.96394 24.5847 11.4491 23.7897 13.0663 23.4669C14.6835 23.1442 16.3601 23.3082 17.8841 23.9382C19.4081 24.5682 20.7111 25.6359 21.6284 27.0063C22.5457 28.3768 23.036 29.9884 23.0374 31.6375C23.037 33.8494 22.1587 35.9706 20.5955 37.5355C19.0324 39.1004 16.912 39.981 14.7002 39.9839Z" fill="#4B566B"/>
<path d="M14.7002 14.3024C15.2076 14.3024 15.7036 14.1519 16.1255 13.87C16.5475 13.5881 16.8763 13.1874 17.0705 12.7186C17.2647 12.2498 17.3155 11.7339 17.2165 11.2363C17.1175 10.7386 16.8731 10.2814 16.5143 9.92263C16.1555 9.56382 15.6984 9.31947 15.2007 9.22048C14.703 9.12148 14.1872 9.17229 13.7184 9.36648C13.2496 9.56066 12.8489 9.8895 12.567 10.3114C12.285 10.7333 12.1346 11.2294 12.1346 11.7368C12.1351 12.4171 12.4055 13.0694 12.8865 13.5504C13.3676 14.0314 14.0199 14.3019 14.7002 14.3024ZM14.7002 9.66022C15.1113 9.66022 15.5132 9.78216 15.8551 10.0106C16.1969 10.2391 16.4633 10.5638 16.6205 10.9437C16.7778 11.3235 16.8188 11.7415 16.7385 12.1447C16.6581 12.548 16.46 12.9183 16.1692 13.2089C15.8783 13.4995 15.5078 13.6973 15.1045 13.7773C14.7012 13.8573 14.2833 13.8158 13.9035 13.6583C13.5238 13.5007 13.1993 13.234 12.9712 12.892C12.743 12.5499 12.6214 12.1479 12.6218 11.7368C12.6218 11.1856 12.8408 10.6569 13.2305 10.2671C13.6203 9.87736 14.1489 9.65839 14.7002 9.65839V9.66022Z" fill="#4B566B"/>
<path d="M14.7002 19.0285C16.1438 19.0285 17.555 18.6004 18.7553 17.7984C19.9556 16.9963 20.8911 15.8564 21.4436 14.5227C21.996 13.189 22.1405 11.7214 21.8589 10.3055C21.5773 8.88965 20.8821 7.58909 19.8613 6.56831C18.8406 5.54753 17.54 4.85237 16.1241 4.57073C14.7083 4.2891 13.2407 4.43365 11.907 4.98609C10.5733 5.53853 9.4333 6.47406 8.63128 7.67438C7.82926 8.87469 7.40118 10.2859 7.40118 11.7295C7.40118 13.6653 8.17017 15.5218 9.539 16.8906C10.9078 18.2595 12.7644 19.0285 14.7002 19.0285ZM14.7002 4.93047C16.0459 4.93083 17.3613 5.33021 18.48 6.07812C19.5988 6.82602 20.4707 7.88886 20.9854 9.13225C21.5001 10.3756 21.6346 11.7437 21.3719 13.0636C21.1091 14.3834 20.4609 15.5957 19.5092 16.5471C18.5575 17.4985 17.3451 18.1464 16.0252 18.4088C14.7053 18.6712 13.3372 18.5364 12.094 18.0213C10.8507 17.5062 9.78811 16.6341 9.0405 15.5151C8.29289 14.3962 7.89386 13.0807 7.89386 11.735C7.8958 9.93057 8.61356 8.20067 9.88963 6.92495C11.1657 5.64923 12.8958 4.93192 14.7002 4.93047Z" fill="#4B566B"/>
<path d="M20.0613 26.1176L16.4337 29.7507C16.0229 29.3762 15.5017 29.1451 14.9483 29.092V23.9973C14.9431 23.9363 14.9151 23.8795 14.87 23.8382C14.8249 23.7968 14.7659 23.7738 14.7047 23.7738C14.6435 23.7738 14.5846 23.7968 14.5395 23.8382C14.4944 23.8795 14.4664 23.9363 14.4611 23.9973V29.092C13.8244 29.151 13.2327 29.4456 12.8019 29.9182C12.3711 30.3908 12.1323 31.0072 12.1323 31.6466C12.1323 32.2861 12.3711 32.9025 12.8019 33.375C13.2327 33.8476 13.8244 34.1422 14.4611 34.2013V39.6518C14.4664 39.7127 14.4944 39.7695 14.5395 39.8109C14.5846 39.8522 14.6435 39.8752 14.7047 39.8752C14.7659 39.8752 14.8249 39.8522 14.87 39.8109C14.9151 39.7695 14.9431 39.7127 14.9483 39.6518V34.1921C15.403 34.1521 15.8386 33.9909 16.2099 33.7255C16.5811 33.46 16.8745 33.0999 17.0595 32.6827C17.2444 32.2654 17.3143 31.8062 17.2616 31.3529C17.209 30.8995 17.0359 30.4685 16.7603 30.1047L20.4098 26.4552C20.4352 26.4332 20.4559 26.4063 20.4704 26.3759C20.485 26.3456 20.4931 26.3127 20.4943 26.2791C20.4956 26.2455 20.4898 26.212 20.4776 26.1807C20.4653 26.1494 20.4466 26.121 20.4229 26.0973C20.3991 26.0735 20.3707 26.0549 20.3394 26.0426C20.3081 26.0303 20.2747 26.0246 20.2411 26.0258C20.2075 26.027 20.1745 26.0352 20.1442 26.0497C20.1139 26.0642 20.0869 26.0849 20.0649 26.1103L20.0613 26.1176ZM14.7002 33.7232C14.2893 33.7235 13.8876 33.6021 13.5457 33.3743C13.2039 33.1465 12.9372 32.8224 12.7794 32.4431C12.6216 32.0638 12.5798 31.6462 12.6592 31.2431C12.7386 30.84 12.9356 30.4695 13.2255 30.1784C13.5154 29.8872 13.885 29.6885 14.2877 29.6074C14.6905 29.5262 15.1082 29.5662 15.4882 29.7223C15.8682 29.8785 16.1935 30.1437 16.4228 30.4846C16.6521 30.8255 16.7753 31.2267 16.7767 31.6375C16.7775 31.9108 16.7243 32.1816 16.6203 32.4344C16.5163 32.6872 16.3635 32.917 16.1707 33.1107C15.9778 33.3044 15.7487 33.4582 15.4964 33.5633C15.2441 33.6684 14.9735 33.7227 14.7002 33.7232Z" fill="#4B566B"/>
</svg>
