<svg width="52" height="41" viewBox="0 0 52 41" fill="none" xmlns="http://www.w3.org/2000/svg">
<path d="M47.4881 4.87179H46.0408L41.2481 0.152248C41.1995 0.103729 41.1419 0.0652967 41.0784 0.0391672C41.015 0.0130377 40.947 -0.000272294 40.8783 4.22159e-06H26.6663C26.5977 -0.000272294 26.5297 0.0130377 26.4662 0.0391672C26.4028 0.0652967 26.3451 0.103729 26.2966 0.152248L21.5039 4.87179H16.2703V0.954986C16.2697 0.815136 16.214 0.681162 16.1151 0.582273C16.0162 0.483383 15.8822 0.427597 15.7424 0.427076H6.38236C6.24251 0.427597 6.10853 0.483383 6.00964 0.582273C5.91076 0.681162 5.85497 0.815136 5.85445 0.954986V4.87179H4.51589C3.31869 4.87336 2.17096 5.34964 1.32441 6.1962C0.477854 7.04275 0.00156942 8.19048 0 9.38769V36.4119C0.00156942 37.6091 0.477854 38.7568 1.32441 39.6034C2.17096 40.4499 3.31869 40.9262 4.51589 40.9278H47.4881C48.6846 40.9251 49.8313 40.4484 50.677 39.602C51.5227 38.7555 51.9984 37.6084 52 36.4119V9.38769C51.9984 8.19116 51.5227 7.04403 50.677 6.19759C49.8313 5.35115 48.6846 4.87441 47.4881 4.87179ZM21.7194 5.92959C21.8585 5.92959 21.992 5.87491 22.0911 5.77734L26.8897 1.05978H40.6668L45.4595 5.7813C45.5586 5.87886 45.6921 5.93354 45.8312 5.93354H47.494C48.4108 5.93459 49.2898 6.29926 49.9381 6.94755C50.5864 7.59584 50.951 8.47482 50.9521 9.39164V36.1469H12.8952V5.92959H21.7194ZM15.2125 1.48487V2.01871H6.92015V1.48487H15.2125ZM6.92015 2.54662H15.2243V4.87179H6.92015V2.54662ZM1.05779 36.4119V9.38769C1.05884 8.47086 1.42351 7.59189 2.0718 6.9436C2.7201 6.2953 3.59907 5.93063 4.51589 5.92959H11.8315V39.87H6.6473V15.1551C6.65047 15.1186 6.646 15.0817 6.63417 15.0469C6.62235 15.0122 6.60343 14.9803 6.57861 14.9532C6.55379 14.9261 6.52361 14.9045 6.49 14.8897C6.45639 14.875 6.42007 14.8673 6.38335 14.8673C6.34663 14.8673 6.31031 14.875 6.27669 14.8897C6.24308 14.9045 6.21291 14.9261 6.18809 14.9532C6.16327 14.9803 6.14434 15.0122 6.13252 15.0469C6.12069 15.0817 6.11622 15.1186 6.11939 15.1551V39.87H4.51589C3.59891 39.8694 2.71963 39.5049 2.07123 38.8565C1.42282 38.2081 1.05832 37.3289 1.05779 36.4119ZM47.4881 39.87H12.8873V36.6768H50.9343C50.8671 37.5451 50.475 38.3561 49.8362 38.948C49.1974 39.5398 48.3589 39.8691 47.4881 39.87Z" fill="#1F1E2E"/>
<path d="M30.2687 5.66464H37.6179C37.6403 5.66766 37.6629 5.66766 37.6852 5.66464H37.701C37.7223 5.65677 37.7429 5.64684 37.7623 5.63499C37.7806 5.62125 37.7972 5.60531 37.8117 5.58753L37.8236 5.57567C37.8373 5.55639 37.8492 5.53587 37.8592 5.51438C37.86 5.50848 37.86 5.50248 37.8592 5.49658C37.8601 5.48672 37.8601 5.47679 37.8592 5.46693C37.8592 5.45704 37.8592 5.44518 37.8592 5.43529C37.8592 5.4254 37.8592 5.42343 37.8592 5.4175V2.49324C37.8592 2.45854 37.8523 2.42418 37.839 2.39215C37.8256 2.36011 37.8061 2.33103 37.7814 2.30659C37.7568 2.28214 37.7276 2.26282 37.6955 2.24972C37.6633 2.23662 37.6289 2.23001 37.5942 2.23027H30.164L30.1402 2.24411L30.1205 2.25597L30.0948 2.27575L30.0809 2.28761L30.0493 2.32715V2.34495C30.0432 2.35441 30.038 2.36432 30.0335 2.37461C30.0326 2.38051 30.0326 2.3865 30.0335 2.3924C30.0326 2.40227 30.0326 2.41219 30.0335 2.42206C30.0335 2.43392 30.0335 2.44381 30.0335 2.45369C30.0335 2.46358 30.0335 2.46556 30.0335 2.47149V5.40959C30.035 5.47342 30.0598 5.5345 30.1031 5.58143C30.1464 5.62837 30.2052 5.65794 30.2687 5.66464ZM30.5337 2.88274L36.23 5.13673H30.5337V2.88274ZM37.351 5.01415L31.6548 2.75818H37.351V5.01415Z" fill="#1F1E2E"/>
<path d="M6.38236 12.1676C6.79031 12.168 7.18921 12.0474 7.5286 11.821C7.86798 11.5947 8.13261 11.2727 8.289 10.8959C8.44538 10.5192 8.4865 10.1045 8.40716 9.7043C8.32781 9.30414 8.13156 8.93651 7.84323 8.6479C7.55491 8.3593 7.18746 8.1627 6.78738 8.08297C6.3873 8.00324 5.97255 8.04396 5.59562 8.19999C5.21869 8.35601 4.8965 8.62033 4.66981 8.9595C4.44313 9.29867 4.32213 9.69745 4.32213 10.1054C4.32265 10.6518 4.53982 11.1758 4.92601 11.5623C5.31221 11.9489 5.83593 12.1666 6.38236 12.1676ZM6.38236 8.57308C6.68542 8.57308 6.98168 8.66295 7.23367 8.83133C7.48566 8.9997 7.68206 9.23902 7.79804 9.51901C7.91401 9.799 7.94436 10.1071 7.88523 10.4043C7.82611 10.7016 7.68017 10.9746 7.46587 11.1889C7.25157 11.4032 6.97854 11.5492 6.6813 11.6083C6.38406 11.6674 6.07596 11.6371 5.79596 11.5211C5.51597 11.4051 5.27665 11.2087 5.10828 10.9567C4.93991 10.7047 4.85004 10.4085 4.85004 10.1054C4.85108 9.69933 5.01286 9.31018 5.3 9.02304C5.58714 8.7359 5.97628 8.57413 6.38236 8.57308Z" fill="#1F1E2E"/>
<path d="M33.9424 34.6541C36.5718 34.6541 39.1422 33.8744 41.3284 32.4136C43.5147 30.9528 45.2187 28.8764 46.225 26.4472C47.2312 24.0179 47.4945 21.3448 46.9815 18.7659C46.4685 16.187 45.2023 13.8181 43.3431 11.9588C41.4838 10.0996 39.1149 8.83337 36.536 8.3204C33.9571 7.80742 31.284 8.0707 28.8547 9.07694C26.4255 10.0832 24.3491 11.7872 22.8883 13.9735C21.4275 16.1597 20.6478 18.7301 20.6478 21.3595C20.6519 24.8842 22.054 28.2633 24.5463 30.7556C27.0386 33.2479 30.4177 34.65 33.9424 34.6541ZM33.9424 9.12274C36.3626 9.12274 38.7284 9.84042 40.7408 11.185C42.7531 12.5296 44.3215 14.4407 45.2477 16.6767C46.1739 18.9127 46.4162 21.3731 45.944 23.7468C45.4719 26.1205 44.3064 28.3009 42.5951 30.0123C40.8837 31.7236 38.7034 32.8891 36.3296 33.3612C33.9559 33.8334 31.4955 33.5911 29.2595 32.6649C27.0236 31.7387 25.1124 30.1703 23.7678 28.158C22.4232 26.1456 21.7056 23.7798 21.7056 21.3595C21.7113 18.1159 23.0024 15.0068 25.296 12.7132C27.5896 10.4196 30.6987 9.12849 33.9424 9.12274Z" fill="#1F1E2E"/>
<path d="M33.9424 31.7457C35.9965 31.7457 38.0046 31.1366 39.7126 29.9953C41.4206 28.8541 42.7518 27.232 43.5379 25.3342C44.324 23.4363 44.5297 21.348 44.1289 19.3333C43.7282 17.3186 42.739 15.468 41.2865 14.0154C39.834 12.5629 37.9833 11.5737 35.9686 11.173C33.9539 10.7722 31.8656 10.9779 29.9677 11.764C28.0699 12.5501 26.4478 13.8813 25.3066 15.5893C24.1653 17.2973 23.5562 19.3054 23.5562 21.3595C23.5588 24.1133 24.6539 26.7536 26.6011 28.7008C28.5483 30.648 31.1886 31.7431 33.9424 31.7457ZM33.9424 11.5013C35.8921 11.5013 37.7981 12.0795 39.4193 13.1627C41.0405 14.246 42.304 15.7856 43.0502 17.587C43.7963 19.3883 43.9916 21.3705 43.6112 23.2828C43.2308 25.1951 42.2919 26.9517 40.9132 28.3304C39.5345 29.7091 37.7779 30.648 35.8656 31.0284C33.9533 31.4088 31.9711 31.2135 30.1698 30.4674C28.3684 29.7212 26.8288 28.4577 25.7455 26.8365C24.6623 25.2153 24.0841 23.3093 24.0841 21.3595C24.0872 18.7459 25.1269 16.2403 26.975 14.3922C28.8231 12.5441 31.3288 11.5044 33.9424 11.5013Z" fill="#1F1E2E"/>
<path d="M30.3241 22.8207C31.2475 22.623 32.0581 22.1524 32.9142 21.6561C35.0298 20.4283 37.4281 19.0383 42.4047 21.5948C42.4669 21.6249 42.5383 21.6295 42.6038 21.6077C42.6693 21.5858 42.7237 21.5393 42.7554 21.4779C42.7871 21.4166 42.7936 21.3453 42.7735 21.2793C42.7535 21.2132 42.7084 21.1576 42.6479 21.1243C37.4064 18.4353 34.8756 19.9024 32.6433 21.1974C31.8228 21.6739 31.0497 22.1227 30.2075 22.3046C27.2041 22.9551 24.9541 21.1717 24.9323 21.1539C24.8778 21.1096 24.8079 21.0888 24.738 21.096C24.6681 21.1032 24.6039 21.1379 24.5596 21.1925C24.5153 21.247 24.4945 21.3169 24.5017 21.3868C24.5089 21.4567 24.5436 21.5209 24.5982 21.5652C25.834 22.4794 27.3297 22.9747 28.8669 22.9789C29.3569 22.9788 29.8455 22.9258 30.3241 22.8207Z" fill="#1F1E2E"/>
</svg>
