<svg width="49" height="48" viewBox="0 0 49 48" fill="none" xmlns="http://www.w3.org/2000/svg">
<path d="M45.7639 2.73246C44.8983 1.8662 43.8704 1.17902 42.7391 0.710167C41.6078 0.241317 40.3951 0 39.1705 0C37.9459 0 36.7333 0.241317 35.602 0.710167C34.4706 1.17902 33.4428 1.8662 32.5771 2.73246L6.94463 28.3704C6.89905 28.4156 6.86287 28.4693 6.83818 28.5285C6.81349 28.5877 6.80077 28.6513 6.80077 28.7154C6.80077 28.7796 6.81349 28.8431 6.83818 28.9023C6.86287 28.9615 6.89905 29.0152 6.94463 29.0604L7.76231 29.878L0.644185 36.9961C0.598381 37.0411 0.562036 37.0948 0.537276 37.1541C0.512515 37.2133 0.499841 37.2769 0.500002 37.3411C0.500144 37.4053 0.512955 37.4688 0.537699 37.5279C0.562442 37.5871 0.598626 37.6409 0.644185 37.686L10.8158 47.8577C10.9074 47.9488 11.0315 48 11.1608 48C11.29 48 11.4141 47.9488 11.5057 47.8577L18.6238 40.7395L19.4415 41.559C19.5335 41.6503 19.6578 41.7015 19.7874 41.7015C19.9169 41.7015 20.0412 41.6503 20.1332 41.559L45.7639 15.921C47.5108 14.1711 48.492 11.7994 48.492 9.32676C48.492 6.85407 47.5108 4.48243 45.7639 2.73246ZM11.1516 46.8283L1.6608 37.3374L8.43761 30.5588L17.9284 40.0405L11.1516 46.8283ZM46.9247 7.29171C46.9287 8.49187 46.5509 9.66221 45.846 10.6336C45.5752 8.89871 44.7596 7.29496 43.5171 6.05425L42.4458 4.9847C41.2117 3.74124 39.6133 2.92354 37.8829 2.65033C38.853 1.94889 40.0203 1.57257 41.2174 1.57531C41.7533 1.57505 42.2866 1.65001 42.8017 1.79798C44.5129 2.62639 45.8915 4.01211 46.7111 5.72754C46.8541 6.23663 46.9266 6.76292 46.9265 7.29171H46.9247ZM44.3695 15.9356L22.2285 38.0821L20.7118 36.5654L45.4627 11.8144C45.4873 13.2622 45.1108 14.6886 44.375 15.9356H44.3695ZM45.2474 11.3344L20.3668 36.2204L12.2832 28.135L37.1674 3.24898C37.2295 3.18815 37.2903 3.12731 37.3499 3.06647C39.1456 3.24498 40.8232 4.04251 42.0953 5.32236L43.1667 6.3919C44.4447 7.6684 45.2401 9.34884 45.4171 11.1464C45.3697 11.214 45.3113 11.276 45.2528 11.3344H45.2474ZM9.83934 30.5771L11.9364 28.48L20.0292 36.5727L17.9321 38.668L9.83934 30.5771ZM32.5698 4.12323C33.7767 3.40515 35.1553 3.02677 36.5596 3.02814H36.6892L11.9383 27.79L10.4216 26.2733L32.5698 4.12323ZM40.6699 1.11172C39.384 1.22076 38.1651 1.73158 37.1857 2.57185C36.9776 2.55542 36.7695 2.5463 36.5596 2.5463C35.5659 2.54581 34.5801 2.72257 33.6485 3.06829C35.1728 1.7179 37.1405 0.97537 39.1769 0.982136C39.678 0.981078 40.1782 1.02444 40.6717 1.11172H40.6699ZM10.0766 26.6183L11.5933 28.135L9.49621 30.2321L7.98315 28.7245L10.0766 26.6183ZM19.7864 40.5242L18.2697 39.0075L20.3668 36.9104L21.8836 38.4271L19.7864 40.5242ZM45.4244 14.8625C45.845 13.7315 46.0168 12.5232 45.9282 11.3198C46.7644 10.3443 47.2749 9.1319 47.3883 7.85203C47.6116 9.093 47.5509 10.3684 47.2108 11.5826C46.8707 12.7968 46.2599 13.9181 45.4244 14.8625Z" fill="#4B566B"/>
<path d="M8.57316 34.4551L5.55965 37.4686L6.56373 38.4727L9.57724 35.4591L8.57316 34.4551Z" fill="#4B566B"/>
<path d="M13.0445 38.9249L10.031 41.9384L11.0351 42.9425L14.0486 39.929L13.0445 38.9249Z" fill="#4B566B"/>
</svg>
