<svg width="53" height="49" viewBox="0 0 53 49" fill="none" xmlns="http://www.w3.org/2000/svg">
<path d="M50.8432 29.3652C51.1085 27.8848 51.2408 26.3837 51.2386 24.8798C51.2508 21.6167 50.6195 18.3832 49.3807 15.3643C48.142 12.3454 46.3201 9.60046 44.0193 7.28645C41.7405 4.97833 39.0261 3.1457 36.0334 1.89489C33.0408 0.644084 29.8296 0 26.5861 0C23.3426 0 20.1313 0.644084 17.1387 1.89489C14.1461 3.1457 11.4316 4.97833 9.15279 7.28645C6.85266 9.60082 5.03132 12.3459 3.79292 15.3647C2.55452 18.3836 1.92337 21.6169 1.93555 24.8798C1.93642 26.2921 2.05543 27.7019 2.29137 29.0943C1.09922 31.2199 0.481928 33.6196 0.500403 36.0566C0.500403 39.3123 1.55205 42.3823 3.46558 44.709C5.37911 47.0357 7.97463 48.3799 10.7342 48.4293H16.0399C16.1801 48.4288 16.3143 48.3727 16.4132 48.2734C16.5122 48.1741 16.5677 48.0397 16.5677 47.8995V24.2216C16.5677 24.0814 16.5122 23.947 16.4132 23.8477C16.3143 23.7484 16.1801 23.6923 16.0399 23.6918H10.7263C9.50993 23.7132 8.31066 23.9823 7.2017 24.4825C7.40927 13.8672 16.0281 5.29583 26.594 5.29583C37.1599 5.29583 45.8281 13.9166 45.9882 24.5754C44.8251 24.0151 43.5548 23.7123 42.264 23.6878H36.9602C36.8908 23.6878 36.822 23.7016 36.7578 23.7282C36.6936 23.7548 36.6354 23.7939 36.5863 23.8431C36.5373 23.8923 36.4984 23.9508 36.472 24.015C36.4456 24.0793 36.4322 24.1481 36.4324 24.2176V47.9173C36.4322 47.9868 36.4456 48.0556 36.472 48.1199C36.4984 48.1841 36.5373 48.2426 36.5863 48.2918C36.6354 48.341 36.6936 48.3801 36.7578 48.4067C36.822 48.4334 36.8908 48.4471 36.9602 48.4471H42.264C45.0315 48.3977 47.6013 47.0772 49.5346 44.7268C51.4679 42.3764 52.4997 39.3301 52.4997 36.0744C52.5139 33.735 51.9445 31.4291 50.8432 29.3652ZM37.488 27.5742H38.3242V44.5568H37.488V27.5742ZM38.854 27.5742H41.7263V44.5568H38.85L38.854 27.5742ZM50.3846 30.8715C50.0564 30.4583 49.694 30.0734 49.3013 29.721C47.4921 28.1199 45.191 27.1834 42.7779 27.0662V24.777C46.0851 25.0676 48.9316 27.4754 50.3846 30.8715ZM41.7263 45.0826V47.3796H38.85V45.0826H41.7263ZM42.7838 27.5979C46.6247 27.8371 49.8588 30.1084 51.1259 33.1883C51.5371 35.0837 51.5371 37.0453 51.1259 38.9407C49.8588 42.0205 46.6247 44.2919 42.7838 44.5311V27.5979ZM15.5022 44.5568H14.5356V27.5762H15.4963L15.5022 44.5568ZM14.0137 44.5568H11.264V27.5762H14.0137V44.5568ZM11.264 27.0484V24.7494H14.0137V27.0464L11.264 27.0484ZM10.2064 44.533C6.3675 44.2938 3.13151 42.0225 1.86636 38.9427C1.45258 37.0475 1.45258 35.0854 1.86636 33.1902C3.13151 30.1104 6.3675 27.8391 10.2064 27.5999V44.533ZM2.60766 41.2595C2.9346 41.6731 3.29635 42.058 3.68896 42.41C5.49845 44.0107 7.79934 44.9471 10.2123 45.0648V47.3539C6.90717 47.0614 4.05862 44.6536 2.60766 41.2575V41.2595ZM11.264 45.0846H14.0137V47.3816H11.264V45.0846ZM14.5356 47.3796V45.0826H15.4963V47.3796H14.5356ZM15.4963 27.0464H14.5356V24.7494H15.4963V27.0464ZM10.2005 27.0662C7.78748 27.1839 5.48659 28.1203 3.6771 29.721C3.28449 30.0729 2.92274 30.4578 2.5958 30.8715C4.05466 27.4754 6.8953 25.0676 10.1946 24.777L10.2005 27.0662ZM26.594 4.2422C15.3164 4.2422 6.14017 13.4995 6.14017 24.8798V25.0479C5.7898 25.2644 5.45251 25.5013 5.13004 25.7575C4.96003 19.5761 6.97635 15.1106 8.74755 12.4142C10.7579 9.35021 12.8988 7.83797 12.9146 7.82413C12.9718 7.78388 13.0108 7.72263 13.023 7.65375C13.0353 7.58486 13.0197 7.51393 12.9798 7.45645C12.9603 7.42769 12.9351 7.40314 12.9059 7.38424C12.8767 7.36533 12.844 7.35246 12.8097 7.34639C12.7755 7.34031 12.7404 7.34114 12.7064 7.34884C12.6725 7.35654 12.6404 7.37095 12.6122 7.39122C12.5212 7.4525 10.3863 8.96276 8.32057 12.1019C6.46041 14.9287 4.33537 19.6453 4.61607 26.1924C4.20028 26.5697 3.81308 26.9774 3.45767 27.4121C3.36081 27.5287 3.25999 27.6513 3.17301 27.7719C3.05784 26.8122 2.99976 25.8464 2.99906 24.8798C2.99906 11.7421 13.5847 1.06748 26.594 1.06748C39.6032 1.06748 50.1889 11.7421 50.1889 24.8838C50.1904 25.9274 50.1243 26.97 49.9912 28.0051C49.8449 27.8075 49.6947 27.6098 49.5385 27.4121C48.8298 26.5413 47.9902 25.7857 47.0497 25.1724C47.0497 25.0676 47.0497 24.9747 47.0497 24.8798C47.0497 13.4995 37.8735 4.2422 26.594 4.2422ZM41.7263 27.0464H38.85V24.7494H41.7223L41.7263 27.0464ZM38.3242 24.7494V27.0464H37.488V24.7494H38.3242ZM37.488 45.0826H38.3242V47.3796H37.488V45.0826ZM42.7838 47.3519V45.0628C45.197 44.9456 47.498 44.0091 49.3072 42.408C49.7 42.0556 50.0623 41.6707 50.3905 41.2575C48.9316 44.6536 46.0851 47.0613 42.7838 47.3519Z" fill="#4B566B"/>
</svg>
