<svg width="53" height="41" viewBox="0 0 53 41" fill="none" xmlns="http://www.w3.org/2000/svg">
<path d="M49.9613 0H3.03475C2.36229 0.00156975 1.71788 0.26967 1.24275 0.745543C0.767616 1.22142 0.500521 1.86624 0.5 2.53871V29.0172C0.501047 29.69 0.768918 30.3349 1.24485 30.8105C1.72078 31.286 2.36591 31.5534 3.03871 31.5539H17.6422V35.9571H15.2913C14.7407 35.9571 14.2127 36.1758 13.8233 36.5652C13.434 36.9545 13.2153 37.4826 13.2153 38.0332C13.2153 38.5838 13.434 39.1118 13.8233 39.5011C14.2127 39.8905 14.7407 40.1092 15.2913 40.1092H37.7106C38.2612 40.1092 38.7893 39.8905 39.1786 39.5011C39.568 39.1118 39.7867 38.5838 39.7867 38.0332C39.7867 37.4826 39.568 36.9545 39.1786 36.5652C38.7893 36.1758 38.2612 35.9571 37.7106 35.9571H35.3578V31.5539H49.9613C50.6341 31.5534 51.2792 31.286 51.7552 30.8105C52.2311 30.3349 52.499 29.69 52.5 29.0172V2.53871C52.4995 1.86556 52.2318 1.22014 51.7559 0.744149C51.2799 0.268162 50.6344 0.000523646 49.9613 0ZM50.1096 29.0468V25.2645H51.4422V28.3054C51.2973 28.5282 51.1001 28.7122 50.8679 28.8414C50.6356 28.9707 50.3753 29.0412 50.1096 29.0468ZM48.8165 30.4981H4.17954C3.84592 30.2834 3.59984 29.9567 3.48555 29.5767H49.5125C49.3982 29.9583 49.1514 30.2864 48.8165 30.5021V30.4981ZM2.88647 2.50905V24.7366H1.55384V3.25049C1.6985 3.02745 1.89561 2.84325 2.12792 2.71399C2.36023 2.58474 2.62067 2.51437 2.88647 2.50905ZM4.17954 1.0578H4.25863V1.97916H3.48555C3.59937 1.59899 3.84556 1.27214 4.17954 1.0578ZM49.5125 1.97916H6.43156V1.0578H48.8145C49.1497 1.2717 49.3973 1.59854 49.5125 1.97916ZM51.4422 24.7366H50.1096V2.50905C50.3754 2.51437 50.6358 2.58474 50.8681 2.71399C51.1004 2.84325 51.2976 3.02745 51.4422 3.25049V24.7366ZM5.90563 1.97916H4.78852V1.0578H5.90563V1.97916ZM4.25665 2.50707V18.0735C4.25665 18.1437 4.28456 18.2111 4.33425 18.2608C4.38394 18.3105 4.45134 18.3384 4.5216 18.3384C4.59187 18.3384 4.65926 18.3105 4.70894 18.2608C4.75863 18.2111 4.78654 18.1437 4.78654 18.0735V2.50707H5.90365V18.0735C5.90048 18.11 5.90495 18.1469 5.91677 18.1816C5.9286 18.2164 5.94752 18.2483 5.97234 18.2754C5.99716 18.3025 6.02734 18.3241 6.06096 18.3389C6.09457 18.3536 6.13088 18.3613 6.1676 18.3613C6.20432 18.3613 6.24064 18.3536 6.27426 18.3389C6.30787 18.3241 6.33805 18.3025 6.36287 18.2754C6.38769 18.2483 6.4066 18.2164 6.41843 18.1816C6.43025 18.1469 6.43473 18.11 6.43156 18.0735V2.50707H49.5797V24.7366H3.41239V2.50707H4.25665ZM1.55186 25.2645H2.88449V29.0468C2.61876 29.0412 2.35845 28.9707 2.12619 28.8414C1.89394 28.7122 1.69678 28.5282 1.55186 28.3054V25.2645ZM3.41239 29.0468V25.2645H49.5797V29.0468H3.41239ZM51.4383 2.46357C51.0543 2.14991 50.5737 1.97876 50.0779 1.97916H50.0562C49.9824 1.64021 49.8277 1.32412 49.6054 1.0578H49.9613C50.3408 1.05784 50.7058 1.2038 50.9808 1.46547C51.2557 1.72714 51.4195 2.08449 51.4383 2.46357ZM3.03475 1.0578H3.39065C3.16984 1.32508 3.01537 1.64079 2.93985 1.97916H2.9181C2.42234 1.97876 1.94171 2.14991 1.55779 2.46357C1.57751 2.08483 1.7416 1.72803 2.01632 1.46656C2.29103 1.20508 2.6555 1.0588 3.03475 1.0578ZM1.55779 29.0903C1.94103 29.4054 2.42195 29.5774 2.9181 29.5767H2.93985C3.01537 29.9151 3.16984 30.2308 3.39065 30.4981H3.03475C2.65517 30.4971 2.29043 30.3505 2.01567 30.0886C1.7409 29.8267 1.57702 29.4694 1.55779 29.0903ZM37.7106 39.0435H15.2874C15.1507 39.0434 15.0154 39.0157 14.8897 38.962C14.764 38.9083 14.6504 38.8298 14.5558 38.7311H38.4402C38.3461 38.8298 38.2329 38.9084 38.1075 38.9621C37.9821 39.0158 37.8471 39.0435 37.7106 39.0435ZM38.7249 38.0292C38.7238 38.0868 38.7185 38.1443 38.7091 38.2012H14.2889C14.2786 38.1445 14.2733 38.0869 14.2731 38.0292C14.2731 37.7602 14.38 37.5022 14.5702 37.312C14.7604 37.1218 15.0184 37.0149 15.2874 37.0149H37.7106C37.9795 37.0154 38.2372 37.1225 38.4273 37.3126C38.6174 37.5027 38.7244 37.7604 38.7249 38.0292ZM18.6901 35.9571V35.275H34.3099V35.9571H18.6901ZM34.2961 34.7471H18.6901V31.5539H34.3099L34.2961 34.7471ZM49.9554 30.4981H49.5995C49.8218 30.2318 49.9764 29.9157 50.0503 29.5767H50.072C50.5682 29.5774 51.0491 29.4054 51.4323 29.0903C51.4151 29.4694 51.2528 29.8274 50.979 30.0902C50.7051 30.353 50.3408 30.5004 49.9613 30.5021L49.9554 30.4981Z" fill="#4B566B"/>
<path d="M5.67627 25.9011C5.40784 25.9007 5.14534 25.98 4.92198 26.1289C4.69863 26.2778 4.52447 26.4896 4.42157 26.7375C4.31867 26.9854 4.29164 27.2583 4.34391 27.5216C4.39619 27.7849 4.52541 28.0268 4.71521 28.2166C4.90502 28.4064 5.14688 28.5356 5.41017 28.5879C5.67346 28.6401 5.94633 28.6131 6.19425 28.5102C6.44218 28.4073 6.65399 28.2332 6.80288 28.0098C6.95177 27.7865 7.03104 27.5239 7.03065 27.2555C7.03013 26.8965 6.88726 26.5523 6.63338 26.2984C6.3795 26.0445 6.03531 25.9017 5.67627 25.9011ZM5.67627 28.076C5.51273 28.0764 5.35274 28.0283 5.21657 27.9377C5.0804 27.8471 4.97416 27.7182 4.9113 27.5672C4.84845 27.4162 4.8318 27.25 4.86347 27.0896C4.89513 26.9291 4.97369 26.7817 5.0892 26.6659C5.2047 26.5501 5.35196 26.4712 5.51233 26.4391C5.6727 26.4071 5.83897 26.4233 5.9901 26.4858C6.14124 26.5483 6.27043 26.6543 6.36133 26.7902C6.45223 26.9262 6.50075 27.086 6.50075 27.2496C6.50153 27.3584 6.48081 27.4664 6.43975 27.5672C6.39869 27.6681 6.33811 27.7598 6.2615 27.8371C6.18488 27.9145 6.09375 27.9759 5.99331 28.0179C5.89288 28.06 5.78514 28.0817 5.67627 28.082V28.076Z" fill="#4B566B"/>
<path d="M9.65636 25.9011C9.38793 25.9007 9.1254 25.98 8.90205 26.1289C8.67869 26.2778 8.50455 26.4896 8.40164 26.7375C8.29874 26.9854 8.2717 27.2583 8.32398 27.5216C8.37625 27.7849 8.50547 28.0268 8.69528 28.2166C8.88509 28.4064 9.12695 28.5356 9.39024 28.5879C9.65353 28.6401 9.92641 28.6131 10.1743 28.5102C10.4222 28.4073 10.6341 28.2332 10.783 28.0098C10.9318 27.7865 11.0111 27.5239 11.0107 27.2555C11.0102 26.8965 10.8673 26.5523 10.6135 26.2984C10.3596 26.0445 10.0154 25.9017 9.65636 25.9011ZM9.65636 28.076C9.4929 28.076 9.33309 28.0276 9.19718 27.9368C9.06126 27.846 8.95536 27.7169 8.8928 27.5659C8.83025 27.4148 8.81387 27.2487 8.84576 27.0883C8.87765 26.928 8.95635 26.7808 9.07194 26.6652C9.18752 26.5496 9.33479 26.4709 9.49511 26.439C9.65542 26.4071 9.82161 26.4235 9.97263 26.486C10.1236 26.5486 10.2527 26.6545 10.3435 26.7904C10.4343 26.9263 10.4828 27.0861 10.4828 27.2496C10.4836 27.3586 10.4628 27.4667 10.4216 27.5677C10.3804 27.6686 10.3197 27.7604 10.2429 27.8378C10.166 27.9152 10.0747 27.9766 9.974 28.0185C9.87334 28.0604 9.76539 28.082 9.65636 28.082V28.076Z" fill="#4B566B"/>
</svg>
