<svg width="30" height="48" viewBox="0 0 30 48" fill="none" xmlns="http://www.w3.org/2000/svg">
<path d="M28.257 1.10654C27.9071 0.75514 27.4911 0.476546 27.0329 0.286856C26.5748 0.0971672 26.0836 0.000145797 25.5877 0.00139251L3.77444 2.82705e-07C3.27872 -0.000191615 2.78782 0.0973122 2.3298 0.286928C1.87177 0.476543 1.45561 0.754559 1.10508 1.10509C0.754551 1.45561 0.476534 1.87178 0.286919 2.3298C0.0973037 2.78783 -0.000191615 3.27872 2.82729e-07 3.77444L2.39858e-06 44.2256C-0.000189499 44.7213 0.0973066 45.2122 0.286922 45.6702C0.476537 46.1282 0.754551 46.5444 1.10508 46.8949C1.45561 47.2455 1.87177 47.5235 2.3298 47.7131C2.78782 47.9027 3.27872 48.0002 3.77444 48L25.5877 47.9986C26.0834 47.9988 26.5743 47.9013 27.0324 47.7117C27.4904 47.5221 27.9065 47.2441 28.2571 46.8935C28.6076 46.543 28.8856 46.1268 29.0752 45.6688C29.2648 45.2108 29.3623 44.7199 29.3621 44.2242L29.3608 3.77444C29.3618 3.27893 29.2648 2.78811 29.0754 2.33024C28.8859 1.87237 28.6078 1.45649 28.257 1.10654ZM27.5151 1.84839C27.8045 2.13458 28.0254 2.48254 28.1613 2.86619C27.6523 2.32881 26.981 1.97321 26.2505 1.85394C26.0717 1.55297 25.8456 1.2828 25.5808 1.05385L25.5877 1.04691C25.9461 1.0462 26.3011 1.11656 26.6322 1.25389C26.9633 1.39122 27.2638 1.59281 27.5165 1.84701L27.5151 1.84839ZM4.72706 46.9503C4.45078 46.8176 4.19901 46.6389 3.98244 46.422C3.91105 46.3507 3.8439 46.2752 3.78137 46.196L25.5794 46.196C25.5087 46.2667 25.4518 46.3457 25.3769 46.4206C25.1604 46.6386 24.9081 46.8178 24.6309 46.9503H4.72706ZM1.04692 43.994V41.498L2.66929 41.498V44.5154C2.66897 44.8686 2.72659 45.2194 2.83985 45.554C2.44805 45.4355 2.08581 45.2354 1.777 44.9667C1.4682 44.6981 1.21984 44.367 1.0483 43.9954L1.04692 43.994ZM24.6295 1.0483C24.9986 1.22493 25.3228 1.48282 25.578 1.80263L3.78276 1.80264C3.84529 1.72342 3.91243 1.64795 3.98383 1.57661C4.2004 1.35969 4.45217 1.18106 4.72845 1.04831L24.6295 1.0483ZM3.66212 2.3254L25.6945 2.32402C25.7666 2.32402 25.8373 2.32818 25.9094 2.33372C26.0783 2.6934 26.1659 3.08588 26.1659 3.48325L26.1632 6.50058L3.19344 6.49365L3.19344 3.48464C3.19315 3.08783 3.28027 2.69584 3.44858 2.3365C3.52068 2.33095 3.59279 2.32818 3.66489 2.32818L3.66212 2.3254ZM28.3083 40.4497L26.6859 40.4497L26.6929 7.54333L28.3208 7.54888L28.3083 40.4497ZM26.1618 40.4497L3.1865 40.4511L3.19344 7.54195L26.1687 7.54333L26.1618 40.4497ZM1.04137 7.5364L2.66236 7.53501L2.66929 40.458L1.0483 40.4567L1.04137 7.5364ZM2.66235 3.47771L2.66929 6.49365L1.04831 6.49503L1.04831 3.99908C1.21985 3.62745 1.4682 3.2964 1.77701 3.02775C2.08581 2.7591 2.44805 2.55895 2.83984 2.4405C2.72598 2.7768 2.66836 3.12958 2.66928 3.48464L2.66235 3.47771ZM25.6959 45.6718H3.6649C3.5914 45.6704 3.5193 45.6677 3.44719 45.6621C3.27888 45.3028 3.19177 44.9108 3.19205 44.514L3.20037 41.4994L26.1756 41.498L26.1756 44.507C26.1767 44.9048 26.0896 45.2979 25.9205 45.658C25.8438 45.6681 25.7689 45.6728 25.6959 45.6718ZM26.6915 44.5126L26.6915 41.5036L28.3125 41.505V44.0009C28.141 44.3727 27.8925 44.7038 27.5834 44.9723C27.2743 45.2408 26.9117 45.4404 26.5195 45.5581C26.6348 45.2221 26.6934 44.8692 26.6929 44.514L26.6915 44.5126ZM28.3152 6.49503L26.6929 6.49503L26.6929 3.48602C26.6931 3.13317 26.635 2.78271 26.5209 2.44881C26.9135 2.56645 27.2765 2.76643 27.5856 3.03543C27.8948 3.30443 28.143 3.63626 28.3138 4.00879L28.3152 6.49503ZM3.77444 1.04831C3.72036 1.10238 3.66628 1.15646 3.61082 1.21193C3.41862 1.40421 3.25137 1.61991 3.11301 1.85394C2.40864 1.96657 1.75811 2.2996 1.25491 2.80518L1.20083 2.85926C1.33933 2.47704 1.56098 2.13036 1.84978 1.84424C2.10212 1.59102 2.40213 1.39031 2.73248 1.2537C3.06283 1.11708 3.41696 1.04728 3.77444 1.04831ZM1.84701 46.153C1.55754 45.8674 1.33578 45.5206 1.19806 45.138C1.21608 45.156 1.23411 45.174 1.25214 45.1921C1.75526 45.6972 2.40506 46.0306 3.10885 46.1447C3.24773 46.3783 3.41544 46.5935 3.60804 46.7853C3.6635 46.8408 3.71758 46.8949 3.77166 46.9489C3.41418 46.95 3.06004 46.8801 2.7297 46.7435C2.39935 46.6069 2.09935 46.4062 1.84701 46.153ZM25.5891 46.9517C25.6432 46.8976 25.7056 46.8491 25.761 46.7936C25.9531 46.6013 26.1204 46.3856 26.2588 46.1516C26.959 46.0378 27.6054 45.7059 28.1059 45.2031L28.1599 45.1491C27.9702 45.6779 27.6219 46.1352 27.1625 46.4586C26.7031 46.782 26.1551 46.9557 25.5933 46.9559L25.5891 46.9517Z" fill="#4B566B"/>
<path d="M17.7629 4.71181C17.9722 4.69466 18.1675 4.59966 18.3102 4.44557C18.4528 4.29148 18.5326 4.08949 18.5336 3.87948C18.5347 3.66947 18.457 3.4667 18.3158 3.3112C18.1747 3.15569 17.9803 3.05876 17.7712 3.03952L11.6006 3.0312C11.3848 3.04156 11.1811 3.13462 11.032 3.29107C10.8829 3.44752 10.7997 3.65536 10.7997 3.8715C10.7997 4.08764 10.8829 4.29549 11.032 4.45194C11.1811 4.60839 11.3848 4.70145 11.6007 4.71181L17.7629 4.71181ZM11.2831 3.87289C11.2835 3.78917 11.317 3.70898 11.3762 3.64978C11.4354 3.59057 11.5155 3.55714 11.5993 3.55674L17.7643 3.55673C17.8058 3.55679 17.8468 3.56503 17.8851 3.58097C17.9235 3.59691 17.9582 3.62025 17.9875 3.64964C18.0167 3.67875 18.0398 3.71333 18.0555 3.75141C18.0712 3.78949 18.0792 3.83031 18.079 3.8715C18.0772 3.95476 18.0432 4.03408 17.9844 4.09297C17.9255 4.15186 17.8461 4.18577 17.7629 4.18766L11.5993 4.18905C11.5156 4.18851 11.4354 4.15515 11.376 4.09615C11.3466 4.06686 11.3233 4.03207 11.3073 3.99376C11.2914 3.95545 11.2832 3.91438 11.2831 3.87289Z" fill="#4B566B"/>
<path d="M11.6187 42.9845C11.5481 43.0492 11.4913 43.1275 11.4517 43.2147C11.4121 43.302 11.3906 43.3963 11.3885 43.492C11.3885 43.7694 11.5757 44.1618 12.4576 44.4558C13.1798 44.6737 13.9316 44.778 14.6859 44.765C16.0726 44.765 17.2831 44.4641 17.749 43.9982C17.8198 43.9336 17.8767 43.8553 17.9163 43.7681C17.9559 43.6808 17.9773 43.5864 17.9792 43.4906C17.9792 42.6587 16.3222 42.2163 14.6845 42.2177C13.2868 42.2177 12.0846 42.5186 11.6187 42.9845ZM17.4537 43.4893C17.4445 43.5423 17.417 43.5904 17.376 43.6251C17.0709 43.9302 16.0476 44.238 14.6832 44.238C13.9849 44.2514 13.2888 44.156 12.6198 43.9552C12.0596 43.7694 11.9113 43.5683 11.9099 43.4893C11.921 43.4371 11.9487 43.3899 11.9889 43.3548C12.294 43.0497 13.3159 42.7405 14.6832 42.7405C15.3808 42.7283 16.0762 42.8232 16.7451 43.022C17.3039 43.2119 17.4537 43.4116 17.4523 43.4906L17.4537 43.4893Z" fill="#4B566B"/>
</svg>
