<svg width="52" height="52" viewBox="0 0 52 52" fill="none" xmlns="http://www.w3.org/2000/svg">
<path d="M20.6245 46.2244C18.6538 48.1907 15.9837 49.2949 13.1998 49.2949C10.416 49.2949 7.74586 48.1907 5.77517 46.2244C5.7245 46.1807 5.65916 46.1577 5.59226 46.1602C5.52536 46.1626 5.46187 46.1903 5.41453 46.2376C5.36719 46.285 5.33952 46.3484 5.33708 46.4153C5.33464 46.4822 5.3576 46.5476 5.40136 46.5983C7.47112 48.6637 10.2758 49.8238 13.1998 49.8238C16.1239 49.8238 18.9286 48.6637 20.9983 46.5983C21.0421 46.5476 21.065 46.4822 21.0626 46.4153C21.0602 46.3484 21.0325 46.285 20.9851 46.2376C20.9378 46.1903 20.8743 46.1626 20.8074 46.1602C20.7405 46.1577 20.6752 46.1807 20.6245 46.2244Z" fill="#4B566B"/>
<path d="M48.1298 3.86981C45.7668 1.50703 42.5964 0.127276 39.2569 0.00837494C35.9174 -0.110526 32.6568 1.04025 30.1318 3.229C30.0762 3.25445 30.0254 3.28924 29.9815 3.33185L20.6502 12.6572L18.9473 10.9503C18.848 10.8515 18.7136 10.7961 18.5735 10.7961C18.4334 10.7961 18.299 10.8515 18.1997 10.9503L14.9423 14.2117L10.0373 9.30481C9.93656 9.21374 9.80468 9.16482 9.66889 9.16816C9.53311 9.1715 9.40379 9.22684 9.30762 9.32276C9.21145 9.41867 9.15577 9.54784 9.15207 9.68362C9.14838 9.81939 9.19694 9.95141 9.28774 10.0524L14.1947 14.9593L10.9392 18.2148C10.8898 18.2637 10.8506 18.3219 10.8238 18.3861C10.7971 18.4503 10.7833 18.5191 10.7833 18.5886C10.7833 18.6581 10.7971 18.727 10.8238 18.7911C10.8506 18.8553 10.8898 18.9135 10.9392 18.9624L12.6401 20.6653L3.85274 29.4547C2.2133 31.0996 1.0366 33.1478 0.441286 35.3926C-0.154027 37.6375 -0.146895 39.9996 0.461961 42.2408C1.07082 44.482 2.25987 46.523 3.90921 48.1581C5.55855 49.7931 7.60986 50.9644 9.85628 51.5537C12.1027 52.143 14.4648 52.1296 16.7044 51.5147C18.9439 50.8999 20.9818 49.7054 22.6124 48.0517C24.243 46.398 25.4088 44.3436 25.9921 42.0956C26.5755 39.8476 26.5557 37.4856 25.9349 35.2476L35.2306 25.952C36.3901 26.2724 37.5877 26.434 38.7906 26.4326C41.404 26.4309 43.9582 25.6546 46.1305 24.2018C48.3028 22.7489 49.9956 20.6847 50.9951 18.27C51.9946 15.8554 52.2559 13.1986 51.7459 10.6355C51.2359 8.07237 49.9775 5.71797 48.1298 3.86981ZM18.5735 12.0757L19.9026 13.4048L13.3897 19.9177L12.0606 18.5886L18.5735 12.0757ZM26.5243 8.27635C26.1118 9.31548 25.8327 10.4027 25.6936 11.512L11.5049 25.6909C10.3971 25.8314 9.31175 26.1125 8.27511 26.5275L26.5243 8.27635ZM22.545 29.4507C21.3201 28.2207 19.8635 27.2459 18.2594 26.5825C16.6554 25.9191 14.9357 25.5805 13.1998 25.5861C12.9091 25.5861 12.6203 25.596 12.3316 25.6138L25.6026 12.3427C25.4421 14.7707 25.954 17.1959 27.082 19.3519C28.2101 21.5079 29.9107 23.3111 31.9969 24.5636L24.5465 32.012C23.9858 31.0813 23.3136 30.2225 22.545 29.4547V29.4507ZM21.7973 47.3953C19.9195 49.2688 17.4801 50.476 14.8516 50.8325C12.2232 51.1891 9.55025 50.6753 7.24123 49.3698C4.93221 48.0643 3.11406 46.0388 2.06453 43.6027C1.015 41.1667 0.791807 38.454 1.42905 35.8792C2.06629 33.3043 3.52893 31.0089 5.59351 29.3435C7.65809 27.6782 10.2111 26.7345 12.8625 26.6566C15.5139 26.5787 18.1178 27.371 20.2766 28.9123C22.4354 30.4536 24.0302 32.6593 24.8174 35.1923C24.8247 35.229 24.836 35.2648 24.8511 35.2991C25.1889 36.4339 25.3601 37.6118 25.3594 38.7958C25.3641 40.3942 25.0517 41.9776 24.4403 43.4544C23.8289 44.9312 22.9305 46.272 21.7973 47.3993V47.3953ZM25.567 34.1163C25.3549 33.5559 25.1044 33.0107 24.8174 32.4847L32.4735 24.8306C32.9994 25.1173 33.5447 25.3671 34.1052 25.5782L25.567 34.1163ZM47.3822 21.8085C46.2562 22.9415 44.9164 23.8396 43.4405 24.4508C41.9646 25.0619 40.3821 25.3738 38.7847 25.3685C37.6006 25.3696 36.4227 25.1983 35.2879 24.8602C35.2529 24.8458 35.2164 24.8352 35.1792 24.8286C32.6408 24.0425 30.4297 22.4468 28.8838 20.2853C27.338 18.1239 26.5425 15.5157 26.619 12.8595C26.6954 10.2033 27.6396 7.64522 29.3072 5.5763C30.9748 3.50738 33.2741 2.04148 35.8535 1.40269C38.4329 0.763907 41.1505 0.987385 43.5909 2.03896C46.0313 3.09054 48.0601 4.91235 49.3674 7.22589C50.6746 9.53944 51.1882 12.2174 50.8297 14.8504C50.4712 17.4835 49.2604 19.9266 47.3822 21.8065V21.8085Z" fill="#4B566B"/>
<path d="M31.4016 5.83179C33.3599 3.87402 36.0156 2.7742 38.7847 2.7742C41.5538 2.7742 44.2095 3.87402 46.1678 5.83179C46.1919 5.85685 46.2207 5.87678 46.2527 5.89037C46.2846 5.90397 46.319 5.91095 46.3537 5.9109C46.3888 5.91099 46.4235 5.90404 46.4557 5.89044C46.488 5.87685 46.5172 5.8569 46.5416 5.83179C46.591 5.78213 46.6188 5.71493 46.6188 5.64489C46.6188 5.57484 46.591 5.50765 46.5416 5.45799C44.484 3.40142 41.6939 2.24615 38.7847 2.24615C35.8755 2.24615 33.0854 3.40142 31.0277 5.45799C30.9784 5.50765 30.9506 5.57484 30.9506 5.64489C30.9506 5.71493 30.9784 5.78213 31.0277 5.83179C31.0521 5.85673 31.0811 5.87654 31.1132 5.89008C31.1453 5.90361 31.1798 5.91058 31.2146 5.91058C31.2495 5.91058 31.284 5.90361 31.3161 5.89008C31.3482 5.87654 31.3772 5.85673 31.4016 5.83179Z" fill="#4B566B"/>
<path d="M6.61771 42.6169L9.38663 45.3859C9.43725 45.4334 9.50409 45.4599 9.57354 45.4599C9.64299 45.4599 9.70983 45.4334 9.76044 45.3859L13.2038 41.9425L16.6471 45.3859C16.6968 45.4353 16.764 45.463 16.834 45.463C16.9041 45.463 16.9713 45.4353 17.021 45.3859L19.7899 42.6169C19.8393 42.5673 19.867 42.5001 19.867 42.43C19.867 42.36 19.8393 42.2928 19.7899 42.2431L16.3366 38.7998L19.78 35.3564C19.8294 35.3068 19.8571 35.2396 19.8571 35.1695C19.8571 35.0995 19.8294 35.0323 19.78 34.9826L17.0111 32.2137C16.9614 32.1643 16.8942 32.1366 16.8242 32.1366C16.7541 32.1366 16.6869 32.1643 16.6373 32.2137L13.1998 35.6729L9.75648 32.2196C9.70682 32.1702 9.63963 32.1425 9.56958 32.1425C9.49954 32.1425 9.43234 32.1702 9.38268 32.2196L6.61375 34.9886C6.56436 35.0382 6.53663 35.1054 6.53663 35.1755C6.53663 35.2455 6.56436 35.3127 6.61375 35.3624L10.069 38.7998L6.61771 42.2431C6.56831 42.2928 6.54058 42.36 6.54058 42.43C6.54058 42.5001 6.56831 42.5673 6.61771 42.6169ZM10.6228 38.9877C10.6722 38.938 10.6999 38.8708 10.6999 38.8008C10.6999 38.7307 10.6722 38.6635 10.6228 38.6139L7.17941 35.1705L9.56859 32.7794L13.0119 36.2227C13.0621 36.2712 13.1291 36.2982 13.1988 36.2982C13.2686 36.2982 13.3356 36.2712 13.3857 36.2227L16.8291 32.7794L19.2203 35.1705L15.7769 38.6139C15.752 38.6382 15.7322 38.6673 15.7186 38.6994C15.7051 38.7315 15.6981 38.7659 15.6981 38.8008C15.6981 38.8356 15.7051 38.8701 15.7186 38.9022C15.7322 38.9343 15.752 38.9634 15.7769 38.9877L19.2203 42.431L16.8291 44.8202L13.3857 41.3769C13.3361 41.3275 13.2689 41.2997 13.1988 41.2997C13.1288 41.2997 13.0616 41.3275 13.0119 41.3769L9.56859 44.8202L7.17941 42.431L10.6228 38.9877Z" fill="#4B566B"/>
<path d="M32.3469 10.3451C31.7794 10.3455 31.2248 10.5142 30.7531 10.8297C30.2814 11.1453 29.9139 11.5937 29.697 12.1181C29.4801 12.6425 29.4236 13.2195 29.5345 13.776C29.6455 14.3326 29.9189 14.8437 30.3204 15.2449C30.7218 15.646 31.2331 15.9191 31.7898 16.0297C32.3464 16.1403 32.9233 16.0833 33.4476 15.8661C33.9719 15.6488 34.42 15.281 34.7352 14.8091C35.0505 14.3372 35.2187 13.7824 35.2187 13.2149C35.2177 12.4538 34.9147 11.7242 34.3763 11.1861C33.8379 10.6481 33.1081 10.3457 32.3469 10.3451ZM32.3469 15.5566C31.8838 15.5566 31.431 15.4193 31.046 15.162C30.6609 14.9047 30.3607 14.539 30.1835 14.1111C30.0062 13.6832 29.9599 13.2123 30.0502 12.7581C30.1406 12.3038 30.3636 11.8866 30.6911 11.5591C31.0186 11.2316 31.4358 11.0086 31.8901 10.9182C32.3443 10.8278 32.8152 10.8742 33.2431 11.0515C33.671 11.2287 34.0367 11.5288 34.294 11.9139C34.5513 12.299 34.6887 12.7518 34.6887 13.2149C34.6881 13.8358 34.4413 14.4311 34.0022 14.8702C33.5632 15.3092 32.9678 15.5561 32.3469 15.5566Z" fill="#4B566B"/>
<path d="M45.2205 10.3451C44.653 10.3455 44.0983 10.5142 43.6266 10.8297C43.155 11.1453 42.7874 11.5937 42.5705 12.1181C42.3536 12.6425 42.2971 13.2195 42.408 13.776C42.519 14.3326 42.7925 14.8437 43.1939 15.2449C43.5953 15.646 44.1067 15.9191 44.6633 16.0297C45.2199 16.1403 45.7968 16.0833 46.3211 15.8661C46.8454 15.6488 47.2935 15.281 47.6087 14.8091C47.924 14.3372 48.0922 13.7824 48.0922 13.2149C48.0912 12.4538 47.7882 11.7242 47.2498 11.1861C46.7114 10.6481 45.9816 10.3457 45.2205 10.3451ZM45.2205 15.5566C44.7573 15.5566 44.3046 15.4193 43.9195 15.162C43.5344 14.9047 43.2342 14.539 43.057 14.1111C42.8798 13.6832 42.8334 13.2123 42.9237 12.7581C43.0141 12.3038 43.2371 11.8866 43.5646 11.5591C43.8921 11.2316 44.3094 11.0086 44.7636 10.9182C45.2179 10.8278 45.6887 10.8742 46.1166 11.0515C46.5445 11.2287 46.9102 11.5288 47.1675 11.9139C47.4248 12.299 47.5622 12.7518 47.5622 13.2149C47.5617 13.8358 47.3148 14.4311 46.8757 14.8702C46.4367 15.3092 45.8414 15.5561 45.2205 15.5566Z" fill="#4B566B"/>
<path d="M38.7847 3.90739C38.2166 3.907 37.6612 4.07509 37.1887 4.3904C36.7162 4.70572 36.3478 5.15409 36.1301 5.67881C35.9125 6.20352 35.8553 6.781 35.9659 7.3382C36.0765 7.8954 36.3498 8.40728 36.7514 8.8091C37.1529 9.21093 37.6646 9.48463 38.2217 9.5956C38.7789 9.70657 39.3564 9.64981 39.8812 9.43252C40.4061 9.21522 40.8547 8.84713 41.1704 8.37483C41.486 7.90253 41.6545 7.34723 41.6545 6.77916C41.654 6.01802 41.3515 5.28818 40.8135 4.74979C40.2755 4.2114 39.5458 3.90844 38.7847 3.90739ZM38.7847 9.1189C38.3212 9.12007 37.8678 8.98368 37.4819 8.727C37.096 8.47032 36.7949 8.10488 36.6168 7.67698C36.4387 7.24908 36.3916 6.77795 36.4815 6.32325C36.5713 5.86856 36.7941 5.45075 37.1215 5.12274C37.449 4.79473 37.8664 4.57127 38.3209 4.48066C38.7755 4.39004 39.2467 4.43636 39.6749 4.61372C40.1031 4.79109 40.469 5.09153 40.7264 5.47701C40.9837 5.86249 41.1209 6.31567 41.1205 6.77916C41.1194 7.39869 40.8731 7.99261 40.4354 8.43105C39.9977 8.8695 39.4042 9.11681 38.7847 9.1189Z" fill="#4B566B"/>
<path d="M38.7847 16.7809C38.2166 16.7805 37.6612 16.9486 37.1887 17.2639C36.7162 17.5792 36.3478 18.0276 36.1301 18.5523C35.9125 19.077 35.8553 19.6545 35.9659 20.2117C36.0765 20.7689 36.3498 21.2808 36.7514 21.6826C37.1529 22.0844 37.6646 22.3581 38.2217 22.4691C38.7789 22.5801 39.3564 22.5233 39.8812 22.306C40.4061 22.0887 40.8547 21.7207 41.1704 21.2484C41.486 20.776 41.6545 20.2207 41.6545 19.6527C41.654 18.8915 41.3515 18.1617 40.8135 17.6233C40.2755 17.0849 39.5458 16.782 38.7847 16.7809ZM38.7847 21.9944C38.3213 21.9956 37.868 21.8592 37.4821 21.6026C37.0962 21.346 36.7951 20.9807 36.617 20.5529C36.4389 20.1251 36.3916 19.6541 36.4813 19.1995C36.571 18.7448 36.7936 18.327 37.1208 17.9989C37.4481 17.6708 37.8653 17.4472 38.3197 17.3564C38.7741 17.2656 39.2453 17.3116 39.6735 17.4886C40.1018 17.6657 40.4678 17.9659 40.7254 18.3511C40.983 18.7363 41.1205 19.1893 41.1205 19.6527C41.1194 20.2724 40.8732 20.8665 40.4356 21.3053C39.9979 21.744 39.4044 21.9918 38.7847 21.9944Z" fill="#4B566B"/>
</svg>
