<svg width="52" height="48" viewBox="0 0 52 48" fill="none" xmlns="http://www.w3.org/2000/svg">
<path d="M51.4721 14.2246H3.95422V0.497514C3.94598 0.362837 3.88668 0.236376 3.7884 0.143926C3.69012 0.051475 3.56028 0 3.42535 0C3.29042 0 3.16057 0.051475 3.06229 0.143926C2.96401 0.236376 2.9047 0.362837 2.89647 0.497514V14.2246H0.527891C0.387705 14.2251 0.253434 14.2812 0.154492 14.3805C0.0555501 14.4798 -9.75899e-07 14.6143 0 14.7545V47.1296C0 47.2702 0.0558228 47.4049 0.155192 47.5043C0.254561 47.6037 0.389335 47.6595 0.529864 47.6595H51.4721C51.5416 47.6595 51.6104 47.6458 51.6746 47.6191C51.7388 47.5925 51.797 47.5534 51.8461 47.5042C51.8951 47.455 51.934 47.3965 51.9604 47.3323C51.9868 47.268 52.0003 47.1991 52 47.1296V14.7545C52.0003 14.685 51.9868 14.6161 51.9604 14.5518C51.934 14.4876 51.8951 14.4291 51.8461 14.3799C51.797 14.3307 51.7388 14.2916 51.6746 14.265C51.6104 14.2383 51.5416 14.2246 51.4721 14.2246ZM50.9422 23.256V24.1556H1.05578V23.256H50.9422ZM1.05578 24.6835H50.9422V45.3166H1.05578V24.6835ZM50.9422 15.2823V22.2022H49.4001V16.3796C49.3944 16.3136 49.3641 16.2521 49.3152 16.2073C49.2663 16.1624 49.2025 16.1376 49.1362 16.1376C49.0698 16.1376 49.0059 16.1624 48.9571 16.2073C48.9082 16.2521 48.8779 16.3136 48.8722 16.3796V22.2003H46.8951V19.1832C46.8983 19.1466 46.8938 19.1098 46.882 19.075C46.8701 19.0402 46.8512 19.0083 46.8264 18.9813C46.8016 18.9542 46.7714 18.9326 46.7378 18.9178C46.7042 18.903 46.6679 18.8954 46.6311 18.8954C46.5944 18.8954 46.5581 18.903 46.5245 18.9178C46.4909 18.9326 46.4607 18.9542 46.4359 18.9813C46.4111 19.0083 46.3921 19.0402 46.3803 19.075C46.3685 19.1098 46.364 19.1466 46.3672 19.1832V22.1983H43.5993V16.3796C43.5993 16.3094 43.5713 16.242 43.5216 16.1923C43.472 16.1426 43.4046 16.1147 43.3343 16.1147C43.264 16.1147 43.1967 16.1426 43.147 16.1923C43.0973 16.242 43.0694 16.3094 43.0694 16.3796V22.2003H41.033V19.1832C41.033 19.1129 41.005 19.0455 40.9554 18.9958C40.9057 18.9462 40.8383 18.9183 40.768 18.9183C40.6978 18.9183 40.6304 18.9462 40.5807 18.9958C40.531 19.0455 40.5031 19.1129 40.5031 19.1832V22.1983H37.832V16.3796C37.8263 16.3136 37.796 16.2521 37.7471 16.2073C37.6983 16.1624 37.6344 16.1376 37.5681 16.1376C37.5018 16.1376 37.4379 16.1624 37.389 16.2073C37.3401 16.2521 37.3098 16.3136 37.3041 16.3796V22.2003H35.1609V19.1832C35.1609 19.1129 35.133 19.0455 35.0833 18.9958C35.0337 18.9462 34.9663 18.9183 34.896 18.9183C34.8257 18.9183 34.7584 18.9462 34.7087 18.9958C34.659 19.0455 34.6311 19.1129 34.6311 19.1832V22.1983H32.049V16.3796C32.049 16.3094 32.0211 16.242 31.9714 16.1923C31.9217 16.1426 31.8543 16.1147 31.784 16.1147C31.7138 16.1147 31.6464 16.1426 31.5967 16.1923C31.547 16.242 31.5191 16.3094 31.5191 16.3796V22.2003H29.2889V19.1832C29.2889 19.1129 29.261 19.0455 29.2113 18.9958C29.1616 18.9462 29.0942 18.9183 29.024 18.9183C28.9537 18.9183 28.8863 18.9462 28.8367 18.9958C28.787 19.0455 28.7591 19.1129 28.7591 19.1832V22.1983H26.2639V16.3796C26.2639 16.3094 26.236 16.242 26.1863 16.1923C26.1367 16.1426 26.0693 16.1147 25.999 16.1147C25.9287 16.1147 25.8614 16.1426 25.8117 16.1923C25.762 16.242 25.7341 16.3094 25.7341 16.3796V22.2003H23.4149V19.1832C23.4181 19.1466 23.4136 19.1098 23.4018 19.075C23.39 19.0402 23.3711 19.0083 23.3462 18.9813C23.3214 18.9542 23.2912 18.9326 23.2576 18.9178C23.224 18.903 23.1877 18.8954 23.151 18.8954C23.1143 18.8954 23.0779 18.903 23.0443 18.9178C23.0107 18.9326 22.9805 18.9542 22.9557 18.9813C22.9309 19.0083 22.912 19.0402 22.9002 19.075C22.8883 19.1098 22.8839 19.1466 22.887 19.1832V22.1983H20.4789V16.3796C20.4732 16.3136 20.4429 16.2521 20.394 16.2073C20.3452 16.1624 20.2813 16.1376 20.215 16.1376C20.1487 16.1376 20.0848 16.1624 20.0359 16.2073C19.987 16.2521 19.9567 16.3136 19.951 16.3796V22.2003H17.5429V19.1832C17.5461 19.1466 17.5416 19.1098 17.5298 19.075C17.518 19.0402 17.499 19.0083 17.4742 18.9813C17.4494 18.9542 17.4192 18.9326 17.3856 18.9178C17.352 18.903 17.3157 18.8954 17.279 18.8954C17.2422 18.8954 17.2059 18.903 17.1723 18.9178C17.1387 18.9326 17.1085 18.9542 17.0837 18.9813C17.0589 19.0083 17.04 19.0402 17.0281 19.075C17.0163 19.1098 17.0118 19.1466 17.015 19.1832V22.1983H14.6959V16.3796C14.6959 16.3094 14.668 16.242 14.6183 16.1923C14.5686 16.1426 14.5012 16.1147 14.4309 16.1147C14.3607 16.1147 14.2933 16.1426 14.2436 16.1923C14.1939 16.242 14.166 16.3094 14.166 16.3796V22.2003H11.665V19.1832C11.665 19.1129 11.637 19.0455 11.5874 18.9958C11.5377 18.9462 11.4703 18.9183 11.4 18.9183C11.3298 18.9183 11.2624 18.9462 11.2127 18.9958C11.163 19.0455 11.1351 19.1129 11.1351 19.1832V22.1983H8.91084V16.3796C8.90512 16.3136 8.87483 16.2521 8.82596 16.2073C8.7771 16.1624 8.7132 16.1376 8.64689 16.1376C8.58058 16.1376 8.51669 16.1624 8.46782 16.2073C8.41896 16.2521 8.38867 16.3136 8.38295 16.3796V22.2003H5.79886V19.1832C5.79886 19.1129 5.77096 19.0455 5.72127 18.9958C5.67159 18.9462 5.6042 18.9183 5.53393 18.9183C5.46367 18.9183 5.39628 18.9462 5.3466 18.9958C5.29691 19.0455 5.269 19.1129 5.269 19.1832V22.1983H3.12779V16.3796C3.12779 16.3094 3.09988 16.242 3.05019 16.1923C3.00051 16.1426 2.93312 16.1147 2.86286 16.1147C2.79259 16.1147 2.7252 16.1426 2.67552 16.1923C2.62583 16.242 2.59793 16.3094 2.59793 16.3796V22.2003H1.05578V15.2804L50.9422 15.2823ZM1.05578 46.6018V45.8386H50.9422V46.5939L1.05578 46.6018Z" fill="#4B566B"/>
<path d="M12.1335 29.0134C10.9717 29.013 9.83581 29.3572 8.86958 30.0024C7.90334 30.6476 7.15014 31.5648 6.70525 32.6381C6.26036 33.7114 6.14376 34.8926 6.37018 36.0321C6.59661 37.1717 7.1559 38.2185 7.97731 39.0402C8.79873 39.8619 9.84537 40.4216 10.9849 40.6484C12.1244 40.8752 13.3055 40.759 14.379 40.3144C15.4524 39.8699 16.3699 39.117 17.0155 38.151C17.661 37.185 18.0056 36.0492 18.0056 34.8874C18.004 33.3303 17.3849 31.8375 16.2841 30.7363C15.1832 29.6351 13.6906 29.0155 12.1335 29.0134ZM12.1335 40.2295C11.0777 40.2295 10.0456 39.9165 9.16778 39.3299C8.28992 38.7433 7.60571 37.9096 7.20168 36.9342C6.79764 35.9587 6.69193 34.8854 6.8979 33.8499C7.10388 32.8144 7.61229 31.8632 8.35885 31.1167C9.10541 30.3701 10.0566 29.8617 11.0921 29.6557C12.1276 29.4497 13.2009 29.5554 14.1764 29.9595C15.1518 30.3635 15.9855 31.0477 16.5721 31.9256C17.1586 32.8035 17.4717 33.8355 17.4717 34.8913C17.4686 36.3061 16.9052 37.6621 15.9047 38.6625C14.9043 39.663 13.5483 40.2264 12.1335 40.2295Z" fill="#4B566B"/>
<path d="M14.51 31.4709C14.3775 31.4713 14.2482 31.511 14.1382 31.5848C14.0282 31.6587 13.9426 31.7635 13.8922 31.886C13.8418 32.0086 13.8288 32.1433 13.8549 32.2731C13.881 32.403 13.945 32.5223 14.0388 32.6158C14.1326 32.7093 14.252 32.773 14.382 32.7987C14.5119 32.8244 14.6466 32.811 14.7689 32.7602C14.8913 32.7094 14.9959 32.6235 15.0694 32.5133C15.143 32.4032 15.1822 32.2736 15.1822 32.1412C15.1822 32.053 15.1648 31.9657 15.131 31.8842C15.0972 31.8028 15.0477 31.7288 14.9852 31.6665C14.9228 31.6043 14.8487 31.5549 14.7671 31.5214C14.6856 31.4878 14.5982 31.4707 14.51 31.4709Z" fill="#4B566B"/>
<path d="M32.1795 26.6606H43.1841C43.2206 26.6638 43.2575 26.6593 43.2922 26.6475C43.327 26.6357 43.3589 26.6167 43.386 26.5919C43.413 26.5671 43.4347 26.5369 43.4494 26.5033C43.4642 26.4697 43.4719 26.4334 43.4719 26.3967C43.4719 26.36 43.4642 26.3236 43.4494 26.29C43.4347 26.2564 43.413 26.2262 43.386 26.2014C43.3589 26.1766 43.327 26.1577 43.2922 26.1459C43.2575 26.134 43.2206 26.1296 43.1841 26.1327H32.1795C32.1134 26.1385 32.0519 26.1687 32.0071 26.2176C31.9623 26.2665 31.9374 26.3304 31.9374 26.3967C31.9374 26.463 31.9623 26.5269 32.0071 26.5757C32.0519 26.6246 32.1134 26.6549 32.1795 26.6606Z" fill="#4B566B"/>
<path d="M30.0857 28.3609H45.2897C45.3557 28.3552 45.4172 28.3249 45.4621 28.2761C45.5069 28.2272 45.5317 28.1633 45.5317 28.097C45.5317 28.0307 45.5069 27.9668 45.4621 27.9179C45.4172 27.8691 45.3557 27.8388 45.2897 27.833H30.0857C30.0491 27.8299 30.0123 27.8343 29.9775 27.8462C29.9427 27.858 29.9108 27.8769 29.8838 27.9017C29.8567 27.9266 29.8351 27.9567 29.8203 27.9903C29.8055 28.024 29.7979 28.0603 29.7979 28.097C29.7979 28.1337 29.8055 28.17 29.8203 28.2036C29.8351 28.2373 29.8567 28.2674 29.8838 28.2922C29.9108 28.3171 29.9427 28.336 29.9775 28.3478C30.0123 28.3596 30.0491 28.3641 30.0857 28.3609Z" fill="#4B566B"/>
<path d="M28.854 30.0632H46.5214C46.5917 30.0632 46.6591 30.0353 46.7087 29.9856C46.7584 29.9359 46.7864 29.8686 46.7864 29.7983C46.7864 29.728 46.7584 29.6606 46.7087 29.611C46.6591 29.5613 46.5917 29.5334 46.5214 29.5334H28.854C28.7837 29.5334 28.7163 29.5613 28.6666 29.611C28.6169 29.6606 28.589 29.728 28.589 29.7983C28.589 29.8686 28.6169 29.9359 28.6666 29.9856C28.7163 30.0353 28.7837 30.0632 28.854 30.0632Z" fill="#4B566B"/>
<path d="M28.075 31.7635H47.3083C47.3744 31.7578 47.4359 31.7275 47.4807 31.6787C47.5255 31.6298 47.5504 31.5659 47.5504 31.4996C47.5504 31.4333 47.5255 31.3694 47.4807 31.3205C47.4359 31.2717 47.3744 31.2414 47.3083 31.2357H28.075C28.0384 31.2325 28.0016 31.237 27.9668 31.2488C27.932 31.2606 27.9001 31.2795 27.873 31.3043C27.846 31.3292 27.8244 31.3593 27.8096 31.3929C27.7948 31.4266 27.7872 31.4629 27.7872 31.4996C27.7872 31.5363 27.7948 31.5726 27.8096 31.6062C27.8244 31.6399 27.846 31.67 27.873 31.6949C27.9001 31.7197 27.932 31.7386 27.9668 31.7504C28.0016 31.7622 28.0384 31.7667 28.075 31.7635Z" fill="#4B566B"/>
<path d="M27.6341 33.4658H47.7413C47.8116 33.4658 47.8789 33.4379 47.9286 33.3882C47.9783 33.3386 48.0062 33.2712 48.0062 33.2009C48.0062 33.1306 47.9783 33.0633 47.9286 33.0136C47.8789 32.9639 47.8116 32.936 47.7413 32.936H27.6341C27.5638 32.936 27.4964 32.9639 27.4467 33.0136C27.3971 33.0633 27.3691 33.1306 27.3691 33.2009C27.3691 33.2712 27.3971 33.3386 27.4467 33.3882C27.4964 33.4379 27.5638 33.4658 27.6341 33.4658Z" fill="#4B566B"/>
<path d="M47.8797 34.6383H27.4957C27.4591 34.6351 27.4223 34.6396 27.3875 34.6514C27.3527 34.6632 27.3208 34.6821 27.2937 34.707C27.2667 34.7318 27.2451 34.7619 27.2303 34.7956C27.2155 34.8292 27.2079 34.8655 27.2079 34.9022C27.2079 34.9389 27.2155 34.9752 27.2303 35.0089C27.2451 35.0425 27.2667 35.0726 27.2937 35.0975C27.3208 35.1223 27.3527 35.1412 27.3875 35.153C27.4223 35.1648 27.4591 35.1693 27.4957 35.1662H47.8797C47.9163 35.1693 47.9531 35.1648 47.9879 35.153C48.0226 35.1412 48.0546 35.1223 48.0816 35.0975C48.1087 35.0726 48.1303 35.0425 48.1451 35.0089C48.1599 34.9752 48.1675 34.9389 48.1675 34.9022C48.1675 34.8655 48.1599 34.8292 48.1451 34.7956C48.1303 34.7619 48.1087 34.7318 48.0816 34.707C48.0546 34.6821 48.0226 34.6632 47.9879 34.6514C47.9531 34.6396 47.9163 34.6351 47.8797 34.6383Z" fill="#4B566B"/>
<path d="M47.7354 36.3485H27.638C27.5678 36.3485 27.5004 36.3764 27.4507 36.4261C27.401 36.4757 27.3731 36.5431 27.3731 36.6134C27.3731 36.6837 27.401 36.751 27.4507 36.8007C27.5004 36.8504 27.5678 36.8783 27.638 36.8783H47.7354C47.8056 36.8783 47.873 36.8504 47.9227 36.8007C47.9724 36.751 48.0003 36.6837 48.0003 36.6134C48.0003 36.5431 47.9724 36.4757 47.9227 36.4261C47.873 36.3764 47.8056 36.3485 47.7354 36.3485Z" fill="#4B566B"/>
<path d="M47.2529 38.0409H28.075C28.0384 38.0377 28.0016 38.0422 27.9668 38.054C27.932 38.0658 27.9001 38.0847 27.873 38.1096C27.846 38.1344 27.8244 38.1646 27.8096 38.1982C27.7948 38.2318 27.7872 38.2681 27.7872 38.3048C27.7872 38.3415 27.7948 38.3778 27.8096 38.4115C27.8244 38.4451 27.846 38.4752 27.873 38.5001C27.9001 38.5249 27.932 38.5438 27.9668 38.5556C28.0016 38.5675 28.0384 38.5719 28.075 38.5688H47.2529C47.2895 38.5719 47.3264 38.5675 47.3611 38.5556C47.3959 38.5438 47.4278 38.5249 47.4549 38.5001C47.4819 38.4752 47.5036 38.4451 47.5183 38.4115C47.5331 38.3778 47.5407 38.3415 47.5407 38.3048C47.5407 38.2681 47.5331 38.2318 47.5183 38.1982C47.5036 38.1646 47.4819 38.1344 47.4549 38.1096C47.4278 38.0847 47.3959 38.0658 47.3611 38.054C47.3264 38.0422 47.2895 38.0377 47.2529 38.0409Z" fill="#4B566B"/>
<path d="M46.4621 39.7412H28.8658C28.7956 39.7412 28.7282 39.7691 28.6785 39.8188C28.6288 39.8685 28.6009 39.9359 28.6009 40.0061C28.6009 40.0764 28.6288 40.1438 28.6785 40.1935C28.7282 40.2431 28.7956 40.271 28.8658 40.271H46.4621C46.5324 40.271 46.5998 40.2431 46.6494 40.1935C46.6991 40.1438 46.727 40.0764 46.727 40.0061C46.727 39.9359 46.6991 39.8685 46.6494 39.8188C46.5998 39.7691 46.5324 39.7412 46.4621 39.7412Z" fill="#4B566B"/>
<path d="M45.262 41.4435H30.1134C30.0431 41.4435 29.9757 41.4714 29.926 41.5211C29.8764 41.5708 29.8484 41.6381 29.8484 41.7084C29.8484 41.7787 29.8764 41.8461 29.926 41.8957C29.9757 41.9454 30.0431 41.9733 30.1134 41.9733H45.262C45.3323 41.9733 45.3996 41.9454 45.4493 41.8957C45.499 41.8461 45.5269 41.7787 45.5269 41.7084C45.5269 41.6381 45.499 41.5708 45.4493 41.5211C45.3996 41.4714 45.3323 41.4435 45.262 41.4435Z" fill="#4B566B"/>
<path d="M43.2809 43.1458H32.1656C32.129 43.1426 32.0922 43.1471 32.0574 43.1589C32.0227 43.1707 31.9907 43.1896 31.9637 43.2145C31.9366 43.2393 31.915 43.2695 31.9002 43.3031C31.8855 43.3367 31.8778 43.373 31.8778 43.4097C31.8778 43.4464 31.8855 43.4827 31.9002 43.5164C31.915 43.55 31.9366 43.5801 31.9637 43.605C31.9907 43.6298 32.0227 43.6487 32.0574 43.6605C32.0922 43.6724 32.129 43.6768 32.1656 43.6737H43.2809C43.347 43.6679 43.4085 43.6376 43.4533 43.5888C43.4981 43.5399 43.523 43.476 43.523 43.4097C43.523 43.3434 43.4981 43.2795 43.4533 43.2306C43.4085 43.1818 43.347 43.1515 43.2809 43.1458Z" fill="#4B566B"/>
</svg>
